<?xml version="1.0" standalone="no"?>
<!DOCTYPE svg PUBLIC "-//W3C//DTD SVG 20010904//EN"
 "http://www.w3.org/TR/2001/REC-SVG-20010904/DTD/svg10.dtd">
<svg version="1.0" xmlns="http://www.w3.org/2000/svg"
 width="626.000000pt" height="470.000000pt" viewBox="0 0 626.000000 470.000000"
 preserveAspectRatio="xMidYMid meet">

<g transform="translate(0.000000,470.000000) scale(0.100000,-0.100000)"
fill="#000000" stroke="none">
<path d="M3395 3690 c3 -5 8 -10 11 -10 2 0 4 5 4 10 0 6 -5 10 -11 10 -5 0
-7 -4 -4 -10z"/>
<path d="M3007 3652 c3 -12 9 -25 14 -28 14 -8 11 10 -6 32 -13 18 -14 18 -8
-4z"/>
<path d="M3259 3574 c-13 -15 -45 -37 -71 -49 -36 -16 -44 -25 -36 -33 17 -17
57 -14 103 7 58 26 71 45 55 76 -17 31 -21 31 -51 -1z"/>
<path d="M3040 3547 c0 -10 45 -67 53 -67 1 0 3 11 3 25 1 14 -1 23 -5 20 -4
-2 -14 5 -21 16 -16 22 -30 25 -30 6z"/>
<path d="M3504 3519 c-18 -5 -39 -20 -48 -33 -8 -14 -25 -27 -36 -31 -11 -3
-20 -13 -20 -20 0 -8 -15 -30 -34 -49 -32 -31 -56 -87 -56 -128 0 -30 -34 -79
-52 -74 -9 2 -25 -2 -35 -10 -26 -20 -62 -17 -112 9 -51 25 -68 52 -28 42 22
-6 28 -2 43 27 24 47 23 133 -4 183 l-21 40 -1 -50 c0 -27 -5 -67 -10 -87 -13
-44 -55 -98 -77 -98 -13 0 -13 -3 -2 -16 18 -22 18 -146 -1 -168 -12 -16 -12
-19 3 -27 10 -6 17 -22 17 -38 0 -27 21 -47 44 -42 5 1 21 -9 35 -22 33 -32
77 -53 124 -62 35 -7 52 -24 25 -25 -7 -1 -26 -7 -43 -14 l-30 -14 32 -14 c44
-19 30 -36 -37 -45 -49 -8 -55 -11 -56 -33 -1 -41 4 -41 52 -5 25 19 55 35 67
34 21 0 21 -1 3 -12 -67 -43 -96 -69 -96 -87 0 -25 16 -26 29 -2 7 11 10 12
11 3 0 -10 11 -12 48 -7 61 7 27 -9 -43 -21 l-50 -8 3 -47 c2 -25 -2 -56 -8
-68 -12 -22 -11 -22 39 -15 44 6 50 5 45 -9 -3 -9 -10 -16 -14 -16 -15 0 -29
-56 -32 -132 -3 -71 -2 -78 16 -78 15 0 16 -3 6 -15 -7 -8 -18 -15 -25 -15
-19 0 -24 -23 -14 -66 11 -49 12 -104 1 -104 -7 0 -31 -55 -32 -73 0 -4 -6
-20 -15 -37 -8 -16 -15 -38 -15 -49 0 -11 -8 -34 -17 -51 -17 -29 -21 -31 -63
-27 -69 6 -123 36 -136 75 -7 24 -13 29 -22 20 -8 -8 -15 -8 -26 1 -13 11 -16
8 -22 -16 -14 -66 -16 -67 -34 -14 -9 29 -23 58 -30 64 -10 10 -10 8 -1 -10 6
-12 13 -35 14 -50 2 -15 11 -45 21 -66 24 -55 63 -254 74 -387 10 -114 11
-115 44 -140 18 -13 57 -48 87 -77 30 -29 56 -53 58 -53 1 0 3 9 3 20 0 26 19
25 61 -2 19 -13 60 -36 92 -53 31 -16 57 -33 57 -37 0 -5 13 -8 30 -8 19 0 34
-7 42 -19 11 -17 13 -18 23 -4 10 14 17 14 67 -1 66 -19 84 -36 69 -65 -16
-30 -14 -38 15 -44 22 -4 25 -2 19 17 -18 57 -17 74 4 81 11 3 25 4 30 1 5 -3
28 -8 52 -11 23 -3 49 -10 55 -16 7 -6 17 -8 22 -5 5 3 17 -1 27 -8 17 -12 17
-17 4 -60 -7 -26 -23 -56 -35 -67 l-22 -20 -27 25 c-15 14 -32 26 -36 26 -21
0 -5 -24 61 -89 64 -65 85 -104 60 -113 -6 -2 -6 -16 1 -41 12 -46 9 -52 -25
-43 -16 4 -28 16 -32 32 -5 19 -9 22 -15 12 -7 -10 -12 -8 -24 10 -9 12 -22
21 -28 20 -16 -3 -67 49 -67 67 0 8 -4 15 -10 15 -5 0 -10 -4 -10 -9 0 -5 -14
-3 -30 6 -21 10 -33 25 -37 44 -3 16 -10 29 -15 29 -5 0 -7 9 -3 20 5 15 0 21
-19 26 -14 3 -23 11 -20 19 3 6 -6 26 -20 43 -15 16 -26 34 -26 40 0 14 -45
25 -104 27 -42 1 -52 5 -77 35 -16 19 -29 31 -29 26 0 -4 -12 0 -26 9 l-27 17
6 -32 c4 -18 20 -47 36 -66 16 -18 32 -42 36 -53 5 -17 179 -131 201 -131 3 0
32 -22 63 -48 54 -47 185 -132 204 -132 7 0 153 -96 167 -110 3 -3 22 -18 42
-33 44 -33 88 -43 117 -28 16 9 26 9 42 0 17 -8 20 -8 14 1 -5 8 -3 11 6 8 8
-3 13 -10 12 -16 -3 -15 28 -23 100 -27 36 -2 81 -12 107 -24 51 -23 145 -29
153 -8 4 9 6 8 6 -2 1 -11 4 -11 16 -1 8 7 25 10 39 6 15 -4 26 -1 29 7 3 9 7
9 18 1 24 -18 134 -2 162 24 13 12 35 22 50 22 14 0 29 5 32 10 4 6 11 7 17 4
6 -4 14 -1 18 6 6 10 15 10 40 1 62 -21 138 -5 185 39 11 10 39 20 62 23 29 3
51 13 69 30 15 15 25 27 23 28 -33 6 -39 5 -39 -7 0 -17 -27 -19 -32 -3 -3 8
-14 7 -35 -5 -41 -21 -62 -20 -93 4 -14 11 -32 20 -41 20 -10 0 -19 12 -23 31
-7 36 -1 49 22 49 26 1 51 24 49 46 -2 17 4 19 45 16 42 -3 47 -1 50 20 2 18
9 23 29 21 20 -1 28 4 33 20 9 33 8 34 -24 41 -34 6 -37 20 -15 72 13 33 13
35 -3 32 -9 -2 -18 -13 -20 -26 -3 -18 -8 -21 -27 -16 -12 3 -26 1 -29 -5 -4
-6 -2 -11 4 -11 6 0 8 -10 4 -27 -9 -38 -11 -39 -33 -19 -18 16 -20 16 -29 1
-8 -16 -11 -16 -40 -1 -17 9 -38 16 -47 16 -9 0 -14 4 -11 8 3 5 -5 20 -17 33
-12 13 -21 27 -19 32 1 4 -13 21 -31 37 -33 29 -95 130 -80 130 4 1 -3 7 -17
15 -25 14 -24 15 20 28 8 2 20 -3 27 -12 17 -22 47 -3 51 33 3 25 2 26 -17 16
-21 -11 -31 3 -11 15 20 12 90 107 90 121 0 8 -7 14 -15 14 -8 0 -15 4 -15 9
0 17 -50 61 -69 61 -27 0 -51 -26 -51 -56 0 -26 -27 -33 -48 -12 -19 19 -27 0
-8 -21 26 -29 18 -75 -14 -79 -24 -2 -24 -2 -7 12 18 14 17 15 -8 32 -14 9
-24 22 -22 28 2 6 -7 19 -20 29 -13 10 -23 23 -23 29 0 6 -7 19 -15 28 -20 22
-9 50 19 50 26 0 40 9 54 36 10 18 6 27 -24 63 -24 27 -44 41 -60 41 -27 0
-28 -3 -14 -30 9 -16 8 -18 -6 -13 -15 5 -16 1 -11 -35 l5 -42 -58 0 c-47 0
-62 -4 -73 -20 -15 -22 -27 -17 -27 13 0 10 9 21 20 24 11 3 20 9 20 13 0 4 9
49 20 101 10 51 16 97 12 100 -4 4 -22 9 -41 13 -26 5 -32 3 -28 -8 3 -7 0
-19 -6 -25 -8 -8 -7 -11 6 -11 31 0 17 -17 -25 -30 -55 -17 -70 -29 -65 -50 5
-21 -11 -52 -24 -45 -5 4 -9 20 -9 37 0 26 -3 30 -20 25 -13 -3 -25 1 -32 12
-9 15 -15 16 -34 7 -13 -6 -24 -20 -24 -31 -1 -19 -2 -19 -20 4 -22 26 -26 57
-8 63 7 3 9 12 5 22 -6 14 -13 16 -35 10 -34 -10 -86 -10 -179 1 -70 8 -73 7
-73 -13 0 -11 -8 -23 -17 -26 -10 -3 -27 -27 -37 -53 -10 -27 -26 -57 -35 -68
-9 -11 -25 -35 -35 -54 -33 -59 -50 -70 -106 -68 -27 1 -50 5 -50 8 0 3 -13 6
-30 6 -35 0 -31 -11 13 -33 18 -9 47 -30 65 -45 27 -24 36 -27 58 -19 16 7 23
7 19 0 -3 -6 -13 -10 -21 -10 -20 0 -18 -17 7 -51 16 -22 20 -41 17 -76 -3
-45 -2 -47 27 -54 17 -4 96 -10 177 -14 91 -4 146 -11 142 -17 -4 -6 -54 -7
-133 -3 -196 10 -225 13 -242 19 -9 4 -21 1 -28 -7 -10 -12 -17 -12 -49 5 -37
18 -41 18 -91 1 -42 -13 -57 -14 -72 -5 -10 7 -30 12 -44 12 -14 0 -25 4 -25
8 0 5 -12 15 -27 23 -16 7 -50 31 -76 53 -27 22 -57 40 -68 41 -10 1 -29 17
-42 36 -13 19 -29 33 -35 32 -6 -2 -20 13 -32 32 -12 19 -26 35 -31 35 -5 0
-9 6 -9 13 0 6 -16 29 -35 51 -19 21 -36 43 -37 50 -4 33 -3 42 7 48 15 12
110 9 142 -3 15 -6 64 -17 109 -24 44 -7 99 -22 122 -34 23 -12 48 -21 57 -21
17 0 20 16 5 25 -5 3 -10 12 -9 18 0 8 2 8 6 -1 9 -22 33 7 33 39 0 16 5 29
10 29 6 0 10 6 10 13 1 6 20 33 43 59 47 52 128 98 178 99 38 1 93 16 69 19
-11 1 -9 4 5 10 19 8 19 9 -2 9 -13 1 -23 6 -23 12 0 5 -5 7 -10 4 -6 -4 -8
-10 -5 -15 3 -5 -3 -9 -12 -9 -10 0 -30 -3 -45 -7 -47 -11 -31 12 20 30 26 9
65 26 87 36 22 11 63 29 90 40 l50 19 -37 1 c-40 0 -47 10 -23 30 8 7 15 26
15 42 0 36 26 88 44 88 38 0 83 -110 65 -158 -16 -42 -23 -142 -10 -142 6 0
11 15 11 34 0 26 32 125 47 145 1 2 9 -2 18 -9 9 -7 19 -10 22 -6 4 4 1 11 -7
16 -11 7 -12 10 -2 10 7 0 -6 26 -31 58 -46 59 -97 137 -97 147 0 4 5 3 10 0
16 -10 100 21 165 61 32 19 69 37 82 40 29 8 30 24 1 24 -21 1 -21 2 -5 11 9
5 17 16 17 23 0 8 11 17 25 20 14 4 25 13 25 20 0 13 27 31 43 28 8 -2 9 11 1
31 -4 12 -11 12 -42 1 -20 -7 -45 -13 -54 -14 -10 0 -18 -7 -18 -16 0 -14 -8
-16 -52 -10 -65 9 -77 19 -54 45 16 18 14 47 -2 37 -4 -2 -8 49 -8 113 -1 89
-5 124 -18 146 l-17 30 6 -32 c5 -25 3 -33 -8 -33 -8 0 -17 7 -21 15 -3 9 -12
12 -23 8 -32 -11 7 23 70 61 58 34 166 66 226 66 47 0 37 33 -13 46 -21 5 -25
9 -14 16 9 6 3 7 -17 4 -31 -6 -206 -34 -287 -45 -37 -6 -48 -4 -48 6 0 8 -28
26 -61 41 l-61 28 73 37 c41 21 90 52 109 68 34 29 33 29 -33 -7 -76 -41 -96
-41 -42 0 19 15 35 32 35 39 -1 7 -10 1 -21 -12 -17 -21 -22 -22 -30 -10 -12
19 -11 24 6 66 8 19 15 55 15 78 0 50 -53 221 -77 247 -16 18 -139 73 -183 82
-14 2 -39 0 -56 -5z m44 -652 c10 -22 10 -28 1 -25 -7 2 -19 22 -26 44 -11 32
-11 36 0 24 7 -8 19 -28 25 -43z m-164 -65 c13 -26 45 -71 71 -100 25 -28 44
-56 40 -62 -9 -15 -25 -12 -19 3 2 7 -5 22 -16 32 -21 19 -21 19 -47 -14 -22
-28 -27 -31 -35 -17 -5 10 -4 31 3 55 10 35 9 42 -10 67 -18 23 -30 84 -16 84
2 0 16 -22 29 -48z m506 18 c0 -5 -5 -10 -11 -10 -5 0 -7 5 -4 10 3 6 8 10 11
10 2 0 4 -4 4 -10z m-58 -210 c-9 -21 -18 -35 -20 -30 -3 9 25 70 33 70 2 0
-4 -18 -13 -40z m-192 -2 c0 -5 -4 -8 -10 -8 -5 0 -10 10 -10 23 0 18 2 19 10
7 5 -8 10 -18 10 -22z m96 -15 c-7 -7 -26 7 -26 19 0 6 6 6 15 -2 9 -7 13 -15
11 -17z m54 14 c0 -8 -7 -14 -15 -14 -16 0 -19 9 -8 20 11 11 23 8 23 -6z
m-420 -26 c0 -27 -33 -82 -43 -71 -8 9 -20 75 -12 68 5 -5 14 1 22 12 20 28
33 25 33 -9z m388 -132 c1 -54 8 -108 18 -137 28 -81 42 -145 38 -166 -3 -12
-5 -35 -5 -53 -1 -37 -22 -59 -94 -97 -27 -15 -42 -21 -31 -14 87 61 95 69 90
83 -4 8 -2 21 4 28 12 14 19 113 9 123 -4 4 -7 14 -7 21 0 8 -9 33 -20 55 -16
35 -20 62 -20 157 0 68 4 110 9 103 5 -8 9 -54 9 -103z m54 61 c-2 -16 -6 -30
-8 -30 -2 0 -4 14 -4 30 0 17 4 30 8 30 5 0 7 -13 4 -30z m1 -60 c3 -11 1 -20
-4 -20 -5 0 -9 9 -9 20 0 11 2 20 4 20 2 0 6 -9 9 -20z m2 -50 c3 -5 1 -10 -4
-10 -6 0 -11 5 -11 10 0 6 2 10 4 10 3 0 8 -4 11 -10z m95 -50 c0 -5 -5 -10
-11 -10 -5 0 -7 5 -4 10 3 6 8 10 11 10 2 0 4 -4 4 -10z m-499 -52 c33 -38 49
-84 49 -140 -1 -70 -16 -43 -23 41 -4 51 -11 69 -33 92 -15 16 -24 29 -20 29
4 0 17 -10 27 -22z m-48 -109 c33 -38 53 -79 39 -79 -4 0 -18 9 -32 20 -14 11
-29 20 -35 20 -9 0 -55 63 -55 75 0 3 11 5 24 5 16 0 36 -14 59 -41z m573
-197 c-4 -3 -11 0 -16 8 -15 24 -11 33 6 15 9 -9 13 -19 10 -23z m364 -396 c0
-2 -7 -7 -16 -10 -8 -3 -12 -2 -9 4 6 10 25 14 25 6z m-22 -78 c-2 -6 -13 -15
-25 -19 -20 -7 -23 -1 -14 29 1 1 10 2 22 2 11 0 19 -5 17 -12z m249 -20 c-3
-8 -6 -5 -6 6 -1 11 2 17 5 13 3 -3 4 -12 1 -19z m-312 2 c3 -5 1 -10 -4 -10
-6 0 -11 5 -11 10 0 6 2 10 4 10 3 0 8 -4 11 -10z m275 -325 c19 -23 8 -25
-14 -4 -11 11 -15 19 -9 19 6 0 16 -7 23 -15z m66 -9 c16 -2 32 -4 37 -5 4 0
7 -6 7 -12 0 -5 -4 -7 -10 -4 -5 3 -10 1 -10 -4 0 -12 -29 -14 -54 -5 -9 4
-16 18 -16 33 0 17 3 22 9 13 4 -7 21 -14 37 -16z m74 -61 c0 -3 -18 -12 -40
-21 -43 -17 -51 -37 -22 -53 9 -6 12 -11 7 -11 -6 0 -16 5 -23 12 -8 8 -14 5
-22 -16 -21 -57 -15 -69 55 -99 36 -15 70 -25 75 -22 6 3 7 -1 4 -9 -5 -14 -2
-14 36 -1 23 8 44 15 46 15 7 0 53 -87 60 -114 5 -22 4 -27 -6 -21 -15 9 -6
-9 17 -37 11 -12 12 -21 5 -35 -10 -17 -11 -17 -17 0 -4 9 -17 17 -29 17 -16
0 -18 2 -7 9 11 7 8 13 -13 26 -17 11 -26 26 -26 44 0 22 -4 26 -30 25 -17 0
-33 -4 -37 -7 -3 -4 -17 -7 -29 -7 -12 0 -30 -7 -38 -16 -10 -10 -24 -13 -37
-9 -19 6 -20 5 -9 -16 15 -27 61 -68 78 -69 6 0 12 -4 12 -10 0 -24 -18 -11
-145 103 -19 17 -20 17 -29 -2 -5 -12 -26 -29 -48 -38 -44 -19 -45 -23 -18
-48 27 -24 25 -39 -8 -76 -23 -25 -37 -32 -79 -35 -52 -3 -82 13 -77 44 1 6 2
17 3 22 0 6 12 15 26 20 15 6 27 20 31 37 10 49 13 53 38 63 35 13 39 26 11
38 -14 7 -25 20 -25 29 -1 15 -4 14 -22 -7 -11 -14 -26 -24 -32 -22 -12 4 -71
5 -133 3 l-42 -1 43 -45 c47 -48 63 -54 72 -30 4 8 13 15 21 15 10 0 13 6 9
16 -4 10 -1 14 6 12 25 -9 7 -78 -19 -78 -8 0 -13 -6 -10 -12 6 -17 -24 -68
-40 -68 -17 0 -17 -17 0 -24 6 -3 -7 -3 -30 -1 -32 3 -45 0 -52 -13 -9 -16
-11 -16 -27 0 -17 17 -12 54 6 43 5 -3 10 0 10 7 0 7 -21 24 -47 37 -27 14
-58 34 -70 45 -13 10 -25 17 -28 14 -8 -8 7 -68 16 -63 13 9 21 -14 14 -44 -7
-32 -45 -51 -45 -22 0 22 -33 42 -51 30 -23 -14 -37 -10 -44 12 -5 14 -13 19
-25 16 -13 -3 -18 1 -18 17 0 11 -3 31 -7 43 -5 16 -2 23 17 29 12 4 27 8 33
9 5 0 11 9 13 20 5 23 30 55 44 55 14 0 38 27 31 34 -4 3 -22 3 -40 0 -20 -4
-33 -2 -33 4 0 6 -9 8 -20 5 -14 -4 -30 3 -48 22 l-28 28 29 28 c25 26 35 29
93 29 35 0 64 -4 64 -9 0 -5 9 -11 21 -14 17 -5 20 -2 16 15 -5 17 -2 19 19
14 14 -4 60 -14 102 -22 42 -8 106 -28 142 -43 43 -19 89 -31 134 -34 71 -5
72 7 1 23 l-30 7 28 12 c16 6 50 11 76 11 l48 0 15 55 c14 51 14 56 -1 65 -14
9 -13 10 4 8 11 -1 36 8 55 20 32 20 70 29 70 17z m210 -271 c0 -31 -23 -28
-28 4 -2 15 2 22 12 22 11 0 16 -9 16 -26z m-1070 -79 c0 -3 -9 -1 -20 5 -11
6 -18 15 -15 21 6 9 35 -12 35 -26z m740 -25 c0 -5 -2 -10 -4 -10 -3 0 -8 5
-11 10 -3 6 -1 10 4 10 6 0 11 -4 11 -10z m240 -35 c12 -15 5 -74 -7 -61 -3 3
-12 1 -19 -5 -7 -6 -23 -7 -35 -4 l-22 7 24 19 c27 21 49 24 49 7 0 -6 2 -9 5
-6 13 13 -8 35 -28 30 -20 -5 -20 -4 -8 11 17 21 25 21 41 2z m-710 -69 c0 -3
-4 -8 -10 -11 -5 -3 -10 -1 -10 4 0 6 5 11 10 11 6 0 10 -2 10 -4z m650 -16
c0 -5 -2 -10 -4 -10 -3 0 -8 5 -11 10 -3 6 -1 10 4 10 6 0 11 -4 11 -10z m45
-20 c-3 -5 -11 -10 -16 -10 -6 0 -7 5 -4 10 3 6 11 10 16 10 6 0 7 -4 4 -10z
m181 -30 c3 0 2 6 -2 13 -5 8 -2 8 9 -2 23 -19 21 -31 -5 -31 -30 0 -91 37
-83 51 4 6 19 2 41 -11 20 -11 37 -20 40 -20z m-231 20 c3 -5 1 -10 -4 -10 -6
0 -11 5 -11 10 0 6 2 10 4 10 3 0 8 -4 11 -10z m-531 -44 c-3 -8 4 -21 16 -29
17 -12 18 -16 6 -26 -17 -14 -89 -4 -80 11 4 5 15 8 25 5 14 -4 19 0 19 15 0
10 -4 17 -9 13 -13 -7 -24 13 -17 31 4 11 10 12 25 4 11 -6 18 -17 15 -24z
m609 17 c-7 -3 -13 -13 -13 -23 0 -10 -9 -22 -21 -25 -23 -8 -42 5 -31 20 10
14 66 43 72 37 3 -3 -1 -7 -7 -9z m-378 -34 c-5 -26 -1 -22 -48 -48 -40 -22
-111 -28 -123 -10 -4 7 2 10 17 8 30 -4 89 20 86 35 -1 6 6 10 16 8 10 -2 17
3 17 13 0 8 9 15 19 15 15 0 19 -5 16 -21z m212 15 c-3 -3 -12 -4 -19 -1 -8 3
-5 6 6 6 11 1 17 -2 13 -5z m-84 -40 c19 -26 9 -31 -25 -13 -17 9 -18 13 -7
20 11 7 10 9 -3 9 -10 0 -18 4 -18 9 0 16 35 0 53 -25z m24 20 c-3 -3 -12 -4
-19 -1 -8 3 -5 6 6 6 11 1 17 -2 13 -5z m103 -56 c0 -12 -36 -10 -64 3 -13 6
-22 17 -20 24 4 10 14 9 45 -4 21 -9 39 -19 39 -23z"/>
<path d="M3995 878 c10 -45 37 -63 49 -32 7 19 -21 64 -41 64 -11 0 -13 -7 -8
-32z"/>
<path d="M4468 863 c7 -3 16 -2 19 1 4 3 -2 6 -13 5 -11 0 -14 -3 -6 -6z"/>
<path d="M5440 3160 c-1 -3 -2 -24 -4 -47 -2 -41 -1 -42 23 -36 31 7 34 9 37
28 3 18 -12 20 -22 3 -5 -8 -12 1 -20 23 -7 18 -13 32 -14 29z"/>
<path d="M5600 3085 c0 -8 -5 -15 -11 -15 -5 0 -7 6 -3 13 5 8 2 8 -9 -2 -9
-7 -17 -20 -17 -28 0 -8 -5 -11 -10 -8 -6 4 -8 16 -5 26 6 19 5 19 -30 4 -21
-8 -47 -15 -59 -16 -11 0 -15 -3 -8 -6 6 -2 12 -17 12 -33 0 -44 63 -58 81
-17 l10 22 -5 -24 c-3 -16 3 -30 21 -47 l26 -24 -35 0 c-38 0 -58 -26 -58 -78
0 -21 -5 -28 -20 -29 -11 -1 -20 2 -20 5 0 4 -8 8 -18 9 -15 1 -18 -4 -14 -23
4 -23 22 -35 22 -14 0 6 11 10 25 10 15 0 31 10 41 26 12 17 24 24 36 21 23
-6 44 24 53 73 3 19 11 40 16 46 7 9 7 19 -1 33 -8 17 -8 21 4 21 22 0 27 15
16 44 -10 28 -40 36 -40 11z"/>
<path d="M6132 3072 c-8 -6 -1 -12 23 -19 38 -12 45 -7 18 13 -21 16 -24 16
-41 6z"/>
<path d="M800 3061 c0 -10 50 -41 65 -41 10 0 -18 26 -43 39 -13 7 -22 8 -22
2z"/>
<path d="M1360 2995 c10 -26 4 -55 -12 -55 -5 0 -7 4 -4 9 4 5 3 17 -1 27 -6
15 -7 15 -14 -4 -9 -25 -39 -30 -39 -7 0 8 8 15 17 15 13 0 14 3 6 11 -15 15
-41 -9 -37 -34 1 -12 -5 -17 -21 -17 -13 0 -26 -4 -29 -8 -3 -5 -21 -9 -41
-10 -26 -1 -45 -10 -66 -32 -17 -16 -35 -30 -40 -30 -5 0 -9 -4 -9 -9 0 -17
30 -5 46 17 15 21 34 22 34 1 0 -6 -4 -7 -10 -4 -5 3 -10 -4 -10 -15 0 -16 -4
-20 -15 -16 -9 3 -18 -1 -21 -9 -4 -8 -13 -15 -21 -15 -13 0 -13 -3 -3 -15 7
-8 20 -15 29 -14 10 0 12 2 3 6 -6 2 -10 9 -6 14 10 16 24 10 24 -11 0 -30 18
-24 22 8 l4 27 13 -30 c14 -33 -1 -77 -24 -69 -23 9 -26 -14 -6 -46 26 -43 78
-75 97 -59 17 14 18 41 2 57 -13 13 -8 15 16 6 9 -3 16 -12 16 -20 0 -8 5 -14
11 -14 5 0 7 5 3 12 -4 6 -3 8 3 5 8 -5 68 8 81 18 8 7 -12 34 -22 28 -6 -4
-4 1 4 11 8 10 23 22 35 26 19 8 19 9 -2 9 -13 1 -23 -3 -23 -9 0 -5 -7 -10
-16 -10 -12 0 -15 6 -11 21 4 15 0 23 -14 26 -19 5 -27 43 -9 43 6 0 10 5 10
11 0 6 -9 8 -21 4 -16 -5 -19 -4 -14 5 5 8 4 11 -3 7 -5 -4 -18 -4 -28 0 -15
5 -14 8 7 15 19 7 21 11 9 18 -20 13 -4 13 18 0 9 -5 30 -14 45 -20 17 -6 25
-14 21 -22 -4 -7 -3 -8 5 -4 6 4 18 2 26 -4 18 -15 75 -20 97 -8 13 6 23 3 37
-11 18 -18 53 -35 76 -36 19 -2 55 -26 55 -37 0 -6 -9 -3 -19 6 -15 13 -20 14
-24 4 -3 -10 -8 -8 -19 6 -10 13 -21 16 -36 12 -24 -8 -30 -26 -9 -26 8 0 41
-11 75 -25 72 -29 72 -29 72 -10 0 12 9 14 41 10 23 -3 46 -8 51 -11 7 -4 8 5
3 27 -7 33 -20 49 -40 49 -5 0 -4 -4 3 -8 9 -6 6 -12 -12 -22 -21 -11 -27 -10
-42 4 -9 10 -23 15 -30 12 -8 -3 -14 0 -14 5 0 6 9 9 20 6 11 -3 18 -1 14 4
-3 5 -18 9 -34 9 -24 0 -28 3 -23 18 5 14 3 15 -7 5 -11 -10 -18 -9 -37 9 -20
18 -23 19 -23 5 0 -23 -12 -21 -28 3 -7 11 -18 17 -27 14 -10 -4 -15 0 -16 12
-2 52 -8 69 -28 85 -12 10 -20 23 -19 30 2 6 -3 14 -10 16 -8 3 -10 -1 -6 -11
7 -19 0 -20 -27 -5 -12 6 -18 17 -15 25 3 8 -1 14 -9 14 -11 0 -12 -5 -5 -25z
m70 -55 c0 -5 -2 -10 -4 -10 -3 0 -8 5 -11 10 -3 6 -1 10 4 10 6 0 11 -4 11
-10z m-60 -50 c-8 -5 -24 -10 -35 -10 -17 0 -17 2 -5 10 8 5 24 10 35 10 17 0
17 -2 5 -10z m-210 -50 c0 -5 -4 -10 -10 -10 -5 0 -10 5 -10 10 0 6 5 10 10
10 6 0 10 -4 10 -10z m40 -149 c15 -30 12 -33 -10 -11 -22 22 -25 30 -10 30 5
0 14 -9 20 -19z"/>
<path d="M976 3002 c-7 -12 4 -52 15 -52 5 0 6 12 3 28 -8 33 -10 36 -18 24z"/>
<path d="M6023 2993 c-15 -5 -17 -59 -4 -68 12 -7 17 1 26 43 6 31 3 36 -22
25z"/>
<path d="M1043 2969 c9 -5 17 -19 17 -30 0 -16 3 -18 19 -9 26 14 31 13 31 -6
0 -8 4 -13 10 -9 9 6 -7 54 -19 56 -3 0 -22 2 -41 4 -28 4 -31 2 -17 -6z"/>
<path d="M5460 2955 c0 -8 2 -15 4 -15 2 0 11 -3 20 -6 23 -9 20 9 -4 24 -17
10 -20 10 -20 -3z"/>
<path d="M648 2953 c6 -2 18 -2 25 0 6 3 1 5 -13 5 -14 0 -19 -2 -12 -5z"/>
<path d="M1200 2950 c-9 -6 -10 -10 -3 -10 6 0 15 5 18 10 8 12 4 12 -15 0z"/>
<path d="M5671 2941 c-7 -12 -7 -22 -2 -26 5 -3 13 4 16 16 9 28 -1 36 -14 10z"/>
<path d="M6066 2929 c-15 -26 -23 -30 -48 -27 -20 3 -32 0 -35 -9 -4 -10 -18
-13 -43 -12 -23 2 -43 -3 -52 -12 -10 -10 -32 -14 -65 -13 -45 1 -55 -3 -103
-43 -29 -24 -63 -46 -76 -49 -31 -8 -31 -22 1 -34 19 -7 25 -17 25 -40 0 -30
1 -30 53 -30 42 0 58 5 73 21 10 12 35 27 54 35 37 15 77 69 59 80 -6 4 -2 14
11 26 16 15 24 17 29 9 5 -8 15 -5 35 10 22 17 35 20 70 15 38 -6 46 -4 74 24
39 37 40 45 2 65 -40 20 -43 20 -64 -16z"/>
<path d="M893 2933 c9 -2 14 -9 10 -15 -4 -8 0 -9 11 -5 10 4 23 7 29 7 7 0 6
4 -3 10 -8 5 -26 9 -40 9 -17 -1 -19 -3 -7 -6z"/>
<path d="M1577 2924 c3 -7 9 -14 14 -14 14 0 10 17 -5 23 -10 4 -13 1 -9 -9z"/>
<path d="M964 2918 c-4 -6 -3 -8 4 -4 5 3 13 0 15 -6 3 -8 6 -6 6 5 1 19 -14
23 -25 5z"/>
<path d="M1525 2919 c-4 -6 -5 -12 -2 -15 2 -3 7 2 10 11 7 17 1 20 -8 4z"/>
<path d="M877 2891 c3 -11 11 -22 19 -25 11 -4 12 -2 4 14 -14 27 -29 34 -23
11z"/>
<path d="M992 2889 c-33 -13 -22 -34 18 -34 31 0 71 18 60 28 -12 11 -57 14
-78 6z"/>
<path d="M460 2879 c0 -5 5 -7 10 -4 6 3 10 8 10 11 0 2 -4 4 -10 4 -5 0 -10
-5 -10 -11z"/>
<path d="M1520 2880 c0 -5 5 -10 10 -10 6 0 10 5 10 10 0 6 -4 10 -10 10 -5 0
-10 -4 -10 -10z"/>
<path d="M6172 2873 c-18 -7 -37 -24 -42 -38 -6 -16 -17 -25 -30 -25 -27 0
-69 -48 -70 -78 0 -27 26 -39 51 -24 10 7 25 12 33 12 8 0 28 16 45 35 17 19
37 35 44 35 8 0 20 7 27 15 11 13 10 14 -3 10 -8 -4 -18 -2 -22 4 -3 6 -2 11
4 11 8 0 6 50 -2 56 -1 1 -17 -5 -35 -13z"/>
<path d="M935 2870 c4 -6 11 -8 16 -5 14 9 11 15 -7 15 -8 0 -12 -5 -9 -10z"/>
<path d="M884 2842 l19 -22 -36 0 c-25 0 -37 -5 -37 -14 0 -9 -7 -12 -20 -9
-12 3 -20 2 -18 -3 1 -5 -4 -19 -11 -32 -10 -19 -15 -21 -27 -11 -11 9 -14 7
-14 -12 0 -22 0 -22 -15 -3 -14 19 -14 19 -15 -2 0 -27 -34 -38 -52 -17 -11
13 -13 13 -19 -4 -6 -14 -8 -13 -8 10 -1 30 25 39 35 12 6 -14 8 -13 20 2 19
26 17 35 -6 28 -11 -3 -20 -2 -20 3 0 6 16 12 35 14 19 2 35 0 35 -4 0 -4 5
-8 10 -8 6 0 10 7 10 16 0 14 -7 15 -41 10 -61 -10 -101 -33 -94 -55 3 -10 0
-31 -7 -47 l-12 -29 -6 40 c-5 39 -6 40 -19 16 -7 -13 -8 -21 -2 -17 16 10 14
-6 -5 -32 -8 -12 -12 -22 -8 -22 3 0 -12 -20 -34 -44 -57 -61 -88 -126 -62
-126 6 0 10 8 10 18 0 25 38 84 50 77 5 -3 7 0 4 8 -3 8 2 20 11 27 12 10 15
10 15 -4 0 -19 11 -21 28 -4 16 16 15 31 0 22 -10 -6 -9 -3 0 8 18 23 44 12
37 -16 -5 -15 -4 -17 3 -7 5 7 12 9 15 5 6 -12 6 -66 -1 -60 -3 3 -11 -2 -18
-12 -12 -15 -15 -15 -24 -2 -6 10 -10 11 -10 3 0 -7 -9 -13 -21 -13 -11 0 -17
-4 -14 -10 3 -5 2 -10 -4 -10 -5 0 -8 -12 -5 -26 6 -34 -13 -22 -32 20 -11 25
-13 27 -14 10 0 -12 6 -27 14 -34 17 -13 6 -57 -13 -52 -13 2 -14 -8 -2 -27 7
-10 13 -6 27 17 10 17 22 29 26 26 5 -3 5 -11 0 -17 -17 -22 -21 -62 -8 -85
l13 -24 24 31 c21 28 69 67 69 58 0 -2 -9 -14 -19 -26 -26 -29 -35 -111 -26
-214 4 -45 9 -107 10 -137 2 -30 4 -59 5 -65 1 -5 2 -13 1 -17 0 -5 4 -8 9 -8
6 0 10 -7 10 -16 0 -11 6 -14 20 -9 15 5 18 3 14 -9 -8 -21 -18 -20 -40 1 -12
12 -19 14 -21 6 -3 -7 -10 -10 -17 -7 -8 3 -16 -2 -19 -10 -5 -13 -2 -13 20
-5 34 13 45 1 34 -36 -6 -24 -13 -30 -32 -28 -17 2 -19 1 -8 -5 9 -4 15 -15
13 -24 -1 -10 1 -18 4 -18 18 1 30 19 37 55 l8 40 13 -30 c7 -16 13 -26 14
-22 1 18 30 -23 30 -42 0 -12 5 -21 10 -21 6 0 10 -5 10 -10 0 -6 -8 -5 -19 2
-11 7 -19 14 -19 17 0 4 0 15 -1 26 -2 20 -2 20 -16 1 -9 -12 -12 -28 -9 -40
6 -19 5 -20 -12 -6 -18 14 -18 14 -5 -3 12 -15 25 -107 15 -107 -1 0 -11 8
-20 18 -16 15 -17 15 -12 0 4 -10 1 -19 -8 -22 -8 -3 -14 -10 -14 -16 0 -6 4
-9 8 -6 4 2 8 -8 7 -22 0 -16 5 -26 13 -25 6 2 12 -2 12 -7 0 -6 -7 -10 -15
-10 -8 0 -15 -9 -15 -21 0 -11 4 -18 9 -14 5 3 18 -6 29 -20 11 -14 25 -25 31
-25 6 0 11 -4 11 -10 0 -5 4 -10 10 -10 5 0 7 7 4 15 -4 8 -1 15 5 15 6 0 11
-11 11 -25 0 -13 8 -29 18 -34 11 -7 13 -10 3 -11 -18 0 6 -30 25 -30 18 0 37
37 24 45 -6 4 -10 12 -9 18 1 7 1 23 0 37 -1 21 -3 22 -12 10 -11 -15 -10 -11
10 83 13 58 16 52 17 -31 0 -43 6 -88 13 -101 8 -15 9 -26 3 -30 -27 -17 -48
-221 -23 -229 6 -2 11 -8 11 -13 0 -6 -6 -7 -12 -3 -7 4 -6 0 2 -8 8 -8 27
-19 42 -26 21 -9 29 -8 39 4 12 15 15 77 4 94 -4 6 -1 10 5 10 6 0 8 5 5 10
-4 6 -10 8 -14 6 -3 -3 -7 3 -7 12 -1 9 -11 41 -22 70 -12 28 -20 52 -19 52 7
0 66 -97 81 -134 14 -34 14 -37 0 -32 -9 3 -12 2 -9 -4 8 -13 -5 -213 -14
-205 -3 4 -7 11 -7 16 -1 5 -2 15 -3 22 -1 6 -6 2 -11 -10 -6 -15 -15 -21 -25
-17 -15 6 -15 -10 0 -62 2 -6 -5 -16 -15 -22 -18 -11 -21 -27 -8 -48 14 -22
27 -64 20 -63 -4 1 -20 1 -36 0 -29 -1 -29 -1 -10 -23 18 -20 18 -21 1 -15
-13 5 -17 3 -15 -5 5 -15 30 -18 40 -4 4 6 12 5 21 -2 7 -7 16 -10 18 -8 2 1
18 -13 34 -33 17 -19 24 -32 18 -27 -25 14 -13 -31 11 -47 22 -15 24 -15 29 3
3 11 1 23 -4 26 -18 11 -8 24 18 24 26 0 26 1 7 15 -16 12 -17 16 -5 24 8 5
11 16 8 25 -4 9 -1 16 6 17 7 0 2 4 -10 9 -13 5 -24 16 -24 25 -1 8 -2 20 -3
27 0 7 -19 17 -41 23 -22 5 -46 14 -53 18 -17 12 -15 27 4 20 10 -4 15 -1 14
8 -4 28 0 49 10 49 6 0 10 -16 8 -36 -3 -33 -1 -36 37 -50 53 -18 71 -19 56 0
-8 10 -9 16 -1 21 5 3 10 1 10 -4 0 -6 4 -11 10 -11 5 0 7 6 4 14 -3 8 -1 17
5 21 6 3 11 0 11 -8 0 -16 26 -30 40 -22 4 3 13 -15 19 -40 13 -51 26 -62 16
-13 -6 30 -6 32 8 14 8 -12 13 -35 11 -58 -6 -73 45 -148 81 -118 10 9 19 8
37 -4 13 -8 33 -14 46 -13 17 1 21 6 16 22 -6 17 -4 17 15 -5 l22 -25 -7 24
c-4 16 -3 21 5 17 6 -4 11 -14 11 -22 0 -8 6 -14 14 -14 17 0 29 27 16 35 -6
4 -10 16 -10 29 0 12 -3 26 -6 29 -10 9 -10 77 -1 77 4 0 12 -11 17 -25 16
-42 53 -85 72 -85 10 0 18 -4 18 -10 0 -5 -8 -10 -17 -10 -17 -1 -16 -1 1 -11
20 -12 65 -106 65 -136 0 -10 5 -36 11 -58 16 -56 20 -116 9 -138 -7 -12 -6
-19 4 -23 8 -3 18 -19 21 -36 l6 -31 20 23 c21 24 21 50 -1 195 -11 71 -12
155 -2 155 4 0 21 -5 39 -12 27 -10 35 -8 62 10 58 42 152 14 152 -44 0 -23 7
-27 62 -36 26 -5 16 36 -32 126 -21 39 -25 57 -19 75 6 15 14 21 25 17 9 -3
22 -6 29 -6 8 0 26 -11 41 -25 15 -14 35 -25 44 -25 10 0 34 -7 55 -16 20 -8
42 -13 48 -11 7 2 19 1 28 -4 8 -4 20 -4 27 0 15 9 -63 196 -105 252 -25 33
-35 39 -93 49 -79 14 -93 14 -148 5 l-43 -8 5 -38 5 -38 -34 21 c-37 21 -53
38 -36 38 5 0 12 -4 15 -9 3 -5 15 -11 26 -14 13 -3 2 13 -31 44 -28 27 -43
46 -33 42 12 -4 15 -3 10 5 -4 6 -21 15 -38 20 -18 4 -34 14 -36 22 -3 9 1 11
12 7 28 -11 14 10 -24 35 -33 22 -35 27 -37 83 -2 53 -1 57 10 35 7 -14 22
-26 35 -28 25 -4 27 1 12 28 -7 13 -7 21 0 25 5 3 10 1 10 -4 0 -6 6 -11 14
-11 7 0 25 -12 40 -26 14 -15 26 -21 26 -14 0 10 4 9 18 -1 15 -13 16 -12 3 3
-7 10 -18 18 -23 18 -14 0 -72 49 -75 64 -1 6 -11 36 -22 66 l-20 55 -1 -47
c0 -27 -4 -48 -9 -48 -9 0 -8 86 1 95 3 4 3 16 0 27 -4 16 -8 10 -18 -27 -6
-27 -10 -55 -7 -62 3 -7 0 -13 -6 -13 -9 0 -10 18 -5 61 5 46 4 60 -5 55 -6
-4 -11 -1 -11 6 0 7 -7 26 -16 43 -8 17 -12 40 -9 53 6 23 7 24 25 7 21 -19
28 -41 10 -30 -6 3 -7 -1 -4 -9 3 -9 10 -14 14 -11 4 3 13 -2 20 -10 19 -23
34 -18 47 15 6 17 8 28 3 25 -4 -2 -16 5 -26 17 -18 20 -18 21 -1 15 11 -4 16
-3 12 3 -3 6 -12 10 -20 10 -17 0 -55 48 -55 69 1 15 2 15 13 0 10 -14 14 -14
25 -3 6 7 12 16 12 19 0 4 6 13 14 20 15 16 36 2 36 -25 0 -12 2 -12 9 -1 7
10 10 11 16 0 6 -9 11 -6 17 10 4 12 12 19 18 16 5 -3 10 0 10 7 1 9 3 8 10
-3 5 -8 7 -24 5 -35 -2 -10 -4 -23 -4 -29 -1 -5 -6 -4 -13 3 -18 18 -58 15
-58 -4 0 -14 3 -14 15 -4 19 16 34 5 17 -12 -16 -16 -15 -47 2 -77 8 -15 16
-20 20 -13 4 7 2 21 -5 33 -6 12 -7 19 -1 15 6 -3 13 0 15 6 3 7 6 1 6 -14 1
-16 6 -27 11 -25 10 2 57 -69 79 -120 6 -12 23 -29 39 -37 18 -9 31 -26 35
-43 3 -15 12 -36 20 -47 13 -17 17 -18 70 -4 45 11 54 16 46 28 -7 13 -10 13
-18 1 -6 -9 -11 -10 -15 -2 -4 6 -2 11 3 11 17 0 13 19 -8 42 -11 11 -17 27
-14 34 4 10 0 12 -11 8 -11 -4 -16 0 -18 12 0 11 -3 30 -4 44 -2 14 -5 39 -6
55 -1 17 -5 33 -10 36 -5 3 -10 15 -13 27 -5 28 -25 65 -32 59 -7 -8 -43 26
-43 41 0 8 -6 12 -12 9 -12 -3 -37 19 -38 34 0 4 11 7 25 7 16 0 25 -6 26 -17
0 -9 3 -11 5 -5 3 8 22 8 62 2 83 -14 86 -15 68 -34 -25 -25 -19 -27 13 -3 37
27 63 19 79 -26 10 -25 17 -32 29 -28 12 5 15 2 11 -13 -4 -15 0 -19 19 -19
12 0 23 2 23 4 0 1 -20 26 -45 53 -70 78 -78 133 -37 262 29 92 76 126 176
126 l39 0 -7 43 c-3 23 -25 80 -49 126 -51 102 -55 113 -27 81 12 -14 41 -65
65 -114 24 -48 50 -95 57 -104 10 -12 10 -14 1 -8 -7 4 -13 3 -13 -3 0 -18 16
-20 48 -4 26 12 30 18 21 29 -6 8 -17 14 -23 14 -7 0 -18 16 -26 35 -7 19 -31
51 -52 72 -21 20 -38 41 -38 46 0 5 13 -5 29 -20 41 -42 131 -116 131 -109 0
3 -14 25 -31 48 -30 43 -24 65 10 34 10 -9 24 -16 31 -16 7 0 11 -3 8 -6 -11
-11 39 -85 78 -114 64 -48 63 -34 -1 24 -33 30 -57 57 -54 60 3 3 35 -19 71
-49 59 -48 71 -54 104 -51 44 4 90 -9 119 -34 11 -10 38 -21 60 -24 22 -4 50
-10 63 -13 16 -4 22 -1 22 11 0 11 -9 16 -30 16 -52 0 -33 38 36 73 17 9 34
14 37 11 3 -3 26 15 52 40 25 25 50 46 56 46 5 0 9 7 9 15 0 17 -18 19 -54 5
-23 -8 -27 -6 -32 14 -6 24 15 75 43 107 8 9 18 30 22 45 4 16 14 29 22 29 20
0 88 55 69 55 -9 1 -3 11 18 29 30 26 31 29 13 34 -13 3 -18 1 -15 -7 5 -13
-35 -36 -61 -36 -19 0 -19 19 0 44 9 12 21 16 32 12 16 -5 16 -4 -1 9 -11 8
-24 15 -29 15 -5 0 -4 6 2 14 10 11 3 14 -41 12 -49 -1 -53 1 -73 32 -46 76
-81 106 -137 120 -70 16 -89 15 -115 -7 -27 -22 -63 -89 -63 -117 0 -26 -31
-55 -96 -87 -30 -15 -55 -36 -62 -52 -13 -27 -32 -26 -32 3 0 9 -4 24 -10 32
-8 12 -11 12 -28 -3 -10 -9 -28 -17 -40 -17 -19 0 -22 -6 -22 -41 0 -39 1 -41
26 -35 24 6 25 6 10 -9 -9 -9 -16 -22 -16 -28 0 -23 -57 -76 -79 -74 -15 1
-20 6 -15 17 15 35 17 63 4 55 -7 -4 -16 -2 -21 6 -8 12 -10 12 -18 0 -5 -8
-22 -14 -39 -15 -17 0 -28 -4 -25 -8 2 -5 -14 -8 -35 -8 -26 0 -42 5 -46 15
-4 12 2 14 32 10 l37 -4 -40 21 c-85 44 -155 118 -97 102 9 -2 5 1 -9 8 -14 7
-24 19 -22 26 3 7 -4 12 -16 12 -12 0 -21 4 -21 10 0 5 8 6 18 3 15 -6 15 -5
3 10 -7 9 -27 17 -43 17 -21 0 -31 6 -35 19 -2 10 -19 29 -36 41 -27 20 -29
20 -14 3 16 -19 16 -20 -7 -31 -27 -12 -36 -1 -36 44 0 14 -4 23 -8 20 -5 -3
-7 -18 -4 -34 4 -27 2 -29 -23 -24 -18 3 -23 7 -14 13 9 5 4 10 -17 15 -16 4
-37 14 -47 22 -16 15 -17 13 -2 -28 18 -52 11 -67 -9 -19 -9 19 -15 29 -16 22
0 -6 -9 -15 -20 -18 -11 -4 -18 -11 -15 -16 4 -5 0 -12 -9 -15 -19 -7 -11 -31
28 -73 l31 -34 -32 22 c-47 32 -41 10 12 -43 25 -25 41 -47 35 -51 -5 -3 -14
-3 -20 0 -5 3 -10 0 -10 -7 0 -9 -2 -10 -8 -2 -4 7 -18 14 -32 15 -20 3 -26
-1 -28 -18 -3 -19 1 -23 25 -24 15 0 37 -4 48 -8 13 -5 24 -3 30 5 8 11 14 10
29 -1 17 -13 18 -15 3 -15 -9 0 -17 -7 -17 -16 0 -12 -6 -15 -25 -10 -20 5
-23 3 -18 -10 5 -14 3 -15 -15 -5 -12 7 -22 8 -22 4 -1 -4 -8 4 -16 20 -8 15
-19 27 -25 27 -6 0 -3 -7 5 -16 9 -8 16 -22 16 -30 0 -8 7 -14 16 -14 8 0 25
-5 36 -11 16 -9 18 -13 7 -20 -10 -6 -8 -10 11 -17 l24 -9 -21 -12 c-12 -6
-32 -11 -44 -11 -22 0 -22 -1 6 -30 16 -16 25 -33 21 -37 -4 -4 -11 -1 -16 7
-6 8 -10 11 -10 6 0 -4 -11 -1 -25 8 -24 16 -26 16 -35 -9 -10 -25 -30 -35
-30 -14 0 6 -6 9 -14 6 -23 -9 -29 42 -11 92 19 55 19 58 -3 38 -10 -10 -22
-14 -25 -10 -11 10 -12 -16 -3 -99 7 -61 -2 -74 -23 -35 -7 13 -28 30 -46 37
l-34 13 20 29 c18 25 49 42 34 18 -3 -5 -1 -10 6 -10 7 0 5 -8 -6 -20 -10 -11
-14 -20 -9 -20 23 0 32 24 27 71 -5 42 -2 53 22 80 22 27 25 38 20 68 -8 44
-12 48 -27 33 -8 -8 -8 -12 -1 -12 6 0 14 -7 17 -16 5 -12 1 -14 -15 -9 -14 5
-25 2 -30 -6 -6 -10 -9 -6 -9 12 0 18 8 29 25 37 23 11 25 17 25 72 0 58 -1
60 -20 50 -21 -11 -27 -30 -10 -30 15 0 12 -16 -11 -52 -16 -25 -20 -28 -16
-10 6 28 4 28 -27 -3 -14 -14 -32 -25 -41 -25 -8 0 -15 -7 -15 -15 0 -8 -7
-15 -16 -15 -19 0 -44 -24 -44 -41 0 -10 -3 -10 -12 -1 -9 9 -15 7 -25 -6 -11
-15 -12 -13 -2 10 7 15 15 25 19 23 4 -3 10 6 12 20 5 25 -14 36 -27 15 -3 -5
-12 -10 -18 -9 -7 0 -2 7 11 16 12 8 22 25 22 37 1 19 2 19 13 4 11 -14 15
-13 32 15 10 18 18 35 17 38 -1 4 7 5 17 2 13 -3 20 2 24 19 11 37 9 39 -22
24 -16 -9 -30 -13 -33 -11 -2 3 -21 0 -42 -6 -27 -7 -36 -15 -32 -25 3 -8 -1
-17 -9 -21 -10 -3 -14 -13 -10 -27 6 -21 6 -21 -9 -2 -20 24 -20 28 -2 71 9
21 11 37 5 40 -5 4 -9 -1 -9 -9 0 -9 -6 -16 -14 -16 -8 0 -13 -8 -11 -17 16
-83 16 -83 -13 -72 l-27 10 23 -23 c23 -25 30 -44 12 -33 -5 3 -10 -1 -10 -10
0 -29 -49 34 -56 73 -5 28 -9 31 -16 18 -12 -21 -28 -11 -29 17 0 21 -1 21
-10 -2 -14 -35 23 -108 54 -107 15 1 22 -4 20 -17 -1 -12 4 -17 14 -13 9 4 17
-1 20 -14 4 -15 12 -19 34 -16 16 2 29 -1 29 -5 0 -5 -13 -9 -29 -9 -24 0 -28
-3 -24 -20 3 -11 0 -20 -6 -20 -6 0 -11 6 -11 14 0 8 -4 17 -9 20 -4 3 -6 -6
-3 -19 5 -28 0 -30 -28 -12 -17 10 -22 9 -30 -3 -6 -9 -10 -10 -10 -3 0 6 5
15 10 18 6 3 10 17 10 31 0 17 -4 23 -12 18 -6 -4 -8 -3 -5 4 9 13 -2 44 -13
37 -4 -3 -11 -25 -14 -49 l-7 -44 86 -87 c47 -48 85 -92 85 -97 0 -6 8 -4 18
3 14 11 13 10 -2 -9 -22 -25 -41 -29 -32 -7 3 9 0 15 -8 15 -7 0 -18 10 -24
23 -8 16 -11 18 -11 6 -1 -9 -8 -19 -16 -23 -22 -8 -18 -21 10 -36 14 -8 24
-19 21 -26 -3 -8 1 -11 10 -7 15 6 15 4 -17 -72 -4 -11 -10 -29 -12 -40 -3
-11 -3 -1 -1 22 3 38 1 43 -31 63 -26 16 -35 29 -35 48 0 15 -5 34 -11 42 -8
11 -9 7 -4 -17 4 -21 3 -33 -4 -33 -6 0 -11 5 -11 11 0 5 -5 7 -11 3 -8 -4 -9
3 -5 23 5 21 2 34 -9 43 -13 11 -15 7 -15 -34 0 -41 4 -50 38 -80 43 -40 85
-116 76 -140 -3 -9 -1 -23 6 -31 7 -9 10 -18 7 -21 -7 -7 -67 55 -67 69 0 4
-5 5 -10 2 -8 -5 -9 10 -4 44 5 37 3 51 -5 51 -7 0 -10 -4 -7 -9 4 -5 3 -17 0
-26 -6 -13 -9 -14 -16 -3 -9 13 -8 3 8 -93 4 -25 15 -41 35 -53 25 -15 29 -15
29 -2 0 10 6 13 15 10 8 -4 15 -11 15 -16 0 -6 7 -16 17 -23 9 -7 13 -17 8
-24 -5 -9 -13 -7 -30 9 -17 16 -25 18 -30 9 -5 -7 -4 -10 2 -6 6 4 14 0 17 -9
3 -8 2 -12 -4 -9 -6 3 -10 1 -10 -4 0 -6 -4 -11 -10 -11 -5 0 -10 6 -10 14 0
15 -18 31 -26 23 -2 -2 2 -17 10 -33 12 -22 13 -30 3 -36 -20 -13 -27 -9 -27
17 0 14 -5 25 -11 25 -5 0 -7 -4 -4 -10 3 -6 -1 -7 -9 -4 -20 8 -20 14 0 28
18 14 9 70 -10 63 -7 -3 -10 12 -8 48 3 38 -1 61 -14 79 -15 24 -15 32 -4 67
7 21 10 42 7 46 -4 3 -7 -1 -7 -11 0 -11 -5 -15 -12 -10 -7 4 -10 4 -6 -1 4
-4 3 -14 -3 -22 -6 -7 -13 -31 -14 -52 -2 -22 -6 -50 -10 -62 -6 -19 -9 -20
-16 -7 -5 9 -10 36 -10 61 -1 26 -6 44 -10 41 -4 -2 -11 1 -15 7 -4 8 -14 -1
-25 -22 -21 -40 -24 -23 -8 51 6 28 26 73 44 101 20 29 32 57 29 67 -5 13 -4
14 4 4 15 -22 55 54 59 113 2 35 0 44 -6 30 -8 -19 -9 -18 -13 5 -2 14 3 33
13 45 9 11 31 55 47 98 26 66 28 77 13 77 -20 0 -46 -51 -30 -60 6 -4 4 -11
-6 -20 -8 -7 -15 -23 -15 -36 0 -24 -31 -64 -49 -64 -21 0 -22 22 -2 27 14 4
21 13 21 31 0 25 -1 25 -14 6 -18 -24 -26 -17 -19 19 4 22 8 25 19 16 8 -7 17
-9 21 -5 3 3 1 6 -6 6 -8 0 -11 6 -7 16 3 8 2 12 -4 9 -6 -3 -10 -2 -10 4 0 5
-8 12 -17 14 -10 2 -8 3 5 2 12 -1 25 2 28 6 3 5 0 9 -5 9 -18 0 10 37 36 49
32 15 36 14 29 -4 -7 -20 4 -19 21 3 11 13 16 14 20 4 3 -8 16 5 34 34 17 25
28 51 25 58 -2 6 -5 3 -5 -6 -1 -10 -8 -18 -16 -18 -7 0 -19 8 -24 18 -9 15
-12 15 -21 2 -8 -13 -10 -13 -10 3 0 9 5 17 12 17 8 0 9 3 2 10 -17 17 -54 0
-54 -26 0 -17 -6 -24 -19 -24 -10 0 -24 -7 -31 -15 -10 -12 -16 -13 -26 -4 -8
6 -14 8 -14 3 0 -4 -5 -3 -11 3 -9 9 -8 16 4 27 9 9 20 16 26 16 6 0 11 5 11
11 0 5 5 7 11 4 6 -4 8 -13 5 -21 -3 -8 -2 -14 3 -14 5 0 11 9 14 20 4 16 -1
21 -30 26 -29 6 -33 8 -19 16 10 5 24 7 32 4 25 -10 15 1 -28 29 -35 23 -39
24 -24 7z m-20 -93 c-3 -5 -14 -7 -24 -4 -12 4 -27 -2 -39 -14 -30 -30 -39
-26 -12 3 30 32 93 44 75 15z m167 -50 c10 -19 9 -20 -11 -14 -13 4 -20 3 -17
-1 3 -5 -6 -9 -19 -9 -13 0 -24 6 -24 13 0 6 9 12 19 12 11 0 23 5 26 10 9 14
13 13 26 -11z m-229 -12 c-12 -13 -22 -31 -22 -41 0 -9 -7 -31 -16 -47 -21
-42 -27 -67 -27 -114 0 -22 -1 -32 -4 -22 -2 9 -9 17 -15 17 -6 0 -7 -18 -3
-50 6 -41 4 -51 -9 -56 -19 -7 -21 -31 -3 -37 9 -3 9 -7 -2 -20 -20 -25 -28
-21 -38 22 -8 28 -7 47 3 69 14 35 7 49 -13 24 -8 -9 -4 2 9 26 13 24 32 61
43 82 11 21 27 46 36 56 9 11 20 30 24 43 10 32 -8 20 -46 -31 -36 -51 -38
-40 -3 16 25 40 78 86 98 86 5 0 0 -10 -12 -23z m445 -139 c-3 -8 -6 -5 -6 6
-1 11 2 17 5 13 3 -3 4 -12 1 -19z m43 7 c0 -8 -4 -15 -8 -15 -5 0 -9 7 -9 15
0 8 4 15 9 15 4 0 8 -7 8 -15z m616 -50 c-3 -8 0 -16 7 -19 7 -2 4 -5 -5 -5
-13 -1 -18 7 -18 25 0 15 4 23 11 19 6 -4 8 -13 5 -20z m1091 17 c8 -5 8 -12
-2 -25 -13 -18 -17 -16 -28 16 -7 18 9 23 30 9z m-2151 -67 c-12 -28 -32 -35
-20 -7 4 9 8 27 8 40 1 19 3 20 12 7 9 -12 9 -22 0 -40z m955 -7 c30 -34 36
-48 19 -48 -5 0 -10 6 -10 13 0 8 -4 7 -10 -3 -9 -13 -10 -13 -11 0 -1 8 -1
19 0 24 1 5 -6 3 -15 -5 -16 -13 -17 -12 -11 13 5 20 3 28 -10 31 -17 4 -17 5
0 6 10 0 31 -14 48 -31z m-401 -5 c0 -17 -36 -58 -50 -58 -8 0 -19 -9 -25 -21
-9 -17 -13 -19 -23 -8 -6 7 -12 18 -12 23 0 14 47 44 58 37 4 -3 15 4 22 15
15 19 30 25 30 12z m468 -2 c22 -12 56 -23 59 -19 2 2 11 -13 22 -32 24 -44
19 -50 -13 -15 -15 16 -30 24 -37 19 -8 -5 -10 -2 -6 8 4 11 1 14 -12 11 -9
-2 -25 5 -35 16 -20 22 -9 28 22 12z m-1031 -50 c-3 -15 -1 -33 6 -40 6 -6 7
-11 1 -11 -5 0 -15 5 -21 11 -8 8 -14 2 -24 -20 -8 -17 -17 -31 -21 -31 -12 0
-10 28 2 35 6 3 10 15 10 26 0 13 7 19 21 19 11 0 17 5 14 10 -3 6 -3 15 0 20
12 19 17 10 12 -19z m-257 -12 c-13 -24 -40 -25 -40 -1 0 13 2 14 9 3 7 -11
10 -9 16 8 3 12 11 19 16 16 5 -4 5 -14 -1 -26z m341 8 c-10 -9 -11 -8 -5 6 3
10 9 15 12 12 3 -3 0 -11 -7 -18z m1099 9 c0 -2 -7 -7 -16 -10 -8 -3 -12 -2
-9 4 6 10 25 14 25 6z m-68 -94 c-3 -9 -1 -13 5 -9 11 7 74 -58 95 -97 10 -18
9 -18 -16 0 -14 11 -26 24 -26 30 0 6 -7 18 -17 25 -15 13 -15 12 -4 -9 7 -13
11 -26 8 -28 -4 -5 -57 82 -57 93 0 2 -7 11 -15 19 -8 8 -11 22 -8 30 4 12 9
10 23 -12 10 -15 16 -34 12 -42z m-1072 54 c0 -3 -4 -8 -10 -11 -5 -3 -10 -1
-10 4 0 6 5 11 10 11 6 0 10 -2 10 -4z m323 -16 c-3 -11 -9 -20 -15 -20 -5 0
-4 9 2 20 6 11 12 20 14 20 2 0 2 -9 -1 -20z m-553 -50 c10 -39 16 -116 10
-130 -4 -8 -7 -24 -8 -40 -2 -11 -5 -10 -16 5 -27 40 -39 141 -20 172 8 12 11
30 7 40 -4 13 -3 15 5 8 6 -5 16 -30 22 -55z m167 30 c-1 -12 -5 -16 -10 -11
-5 5 -6 14 -3 20 11 16 15 13 13 -9z m353 0 c0 -5 -5 -10 -11 -10 -5 0 -7 5
-4 10 3 6 8 10 11 10 2 0 4 -4 4 -10z m770 -46 c12 -19 20 -38 17 -40 -3 -3
-15 12 -27 35 -25 50 -19 54 10 5z m-1205 -1 c-3 -16 -11 -32 -16 -38 -7 -7
-8 -3 -3 10 7 18 6 18 -9 6 -23 -18 -23 5 0 31 24 26 36 22 28 -9z m408 -19
c-4 -11 -7 -11 -19 1 -19 19 -18 24 5 18 12 -3 17 -11 14 -19z m114 -46 c-2
-13 -4 -3 -4 22 0 25 2 35 4 23 2 -13 2 -33 0 -45z m563 10 c0 -4 -7 -5 -15
-2 -8 4 -15 18 -15 33 l1 26 14 -25 c8 -14 14 -28 15 -32z m-30 -34 c0 -11 -5
-14 -16 -10 -9 3 -18 6 -20 6 -3 0 -2 5 1 10 10 16 35 12 35 -6z m-420 -30 c0
-2 -9 0 -20 6 -11 6 -20 13 -20 16 0 2 9 0 20 -6 11 -6 20 -13 20 -16z m505
16 c3 -6 -1 -7 -9 -4 -18 7 -21 14 -7 14 6 0 13 -4 16 -10z m-161 -36 c2 -16
7 -36 10 -44 7 -18 -19 -59 -30 -48 -4 5 -2 19 4 33 9 19 9 30 0 44 -6 10 -8
26 -4 36 8 23 15 16 20 -21z m-1002 -6 c-8 -8 -4 -17 11 -30 12 -11 16 -17 10
-13 -9 4 -13 -3 -14 -22 -1 -17 -3 -21 -6 -10 -2 9 -9 17 -15 17 -5 0 -7 7 -4
16 3 8 2 12 -4 9 -6 -3 -10 1 -10 9 0 19 33 56 39 43 2 -5 -1 -13 -7 -19z
m615 10 c-3 -8 -6 -5 -6 6 -1 11 2 17 5 13 3 -3 4 -12 1 -19z m483 -24 c0 -8
-4 -12 -10 -9 -5 3 -10 10 -10 16 0 5 5 9 10 9 6 0 10 -7 10 -16z m65 -22 c-6
-7 -35 18 -35 31 0 5 9 2 20 -8 11 -10 18 -20 15 -23z m45 18 c13 -9 13 -10 0
-10 -8 0 -22 5 -30 10 -13 9 -13 10 0 10 8 0 22 -5 30 -10z m-160 -32 c0 -6
-7 -5 -15 2 -8 7 -15 17 -15 22 0 6 7 5 15 -2 8 -7 15 -17 15 -22z m-1095 -13
c0 -39 1 -39 -25 -25 -17 9 -18 14 -8 35 16 36 33 31 33 -10z m973 -10 c0 -20
-3 -23 -14 -14 -10 8 -11 14 -1 24 7 8 13 14 13 15 1 0 2 -11 2 -25z m-463 5
c3 -5 1 -10 -4 -10 -6 0 -11 5 -11 10 0 6 2 10 4 10 3 0 8 -4 11 -10z m-55
-19 c0 -5 -7 -12 -16 -15 -14 -5 -15 -4 -4 9 14 17 20 19 20 6z m604 -16 c-4
-8 -11 -15 -16 -15 -6 0 -5 6 2 15 7 8 14 15 16 15 2 0 1 -7 -2 -15z m-1079
-43 c-3 -7 0 -22 5 -33 7 -12 7 -19 1 -19 -16 0 -31 36 -31 72 1 31 1 32 16
13 8 -11 12 -26 9 -33z m1185 17 c0 -5 -4 -9 -10 -9 -5 0 -10 7 -10 16 0 8 5
12 10 9 6 -3 10 -10 10 -16z m72 0 c16 -1 12 -4 -12 -8 -41 -8 -50 -5 -50 15
0 11 4 12 19 4 11 -5 30 -11 43 -11z m-289 2 c9 -1 17 -6 17 -11 0 -6 -11 -8
-27 -4 -32 8 -55 24 -27 19 11 -2 27 -4 37 -4z m-658 -62 c0 -27 -3 -49 -7
-49 -5 0 -8 26 -8 57 0 31 3 53 7 49 4 -4 8 -29 8 -57z m674 4 c3 -3 -1 -2 -9
2 -13 7 -13 6 -2 -7 10 -13 10 -17 -2 -21 -9 -4 -20 1 -26 11 -9 14 -10 14 -5
-5 5 -17 2 -23 -9 -23 -8 0 -18 5 -21 10 -4 6 -11 7 -17 4 -7 -5 -9 -1 -5 9 4
10 1 17 -6 17 -8 0 -8 3 2 9 8 5 12 17 9 28 -5 18 -2 17 40 -4 25 -13 48 -26
51 -30z m316 47 c3 -5 1 -10 -4 -10 -6 0 -11 5 -11 10 0 6 2 10 4 10 3 0 8 -4
11 -10z m-621 -17 c4 -11 1 -11 -14 -3 -24 13 -25 17 -5 17 8 0 16 -6 19 -14z
m76 -50 c23 -17 26 -6 4 19 -17 20 -17 21 -1 9 10 -8 22 -22 27 -31 8 -14 4
-17 -21 -16 -31 1 -41 12 -54 56 l-7 25 18 -25 c10 -14 25 -30 34 -37z m410
25 c0 -25 -3 -29 -10 -18 -13 20 -13 50 0 50 6 0 10 -15 10 -32z m-55 -18 c1
-14 -3 -19 -12 -16 -7 3 -13 1 -13 -3 0 -5 5 -11 12 -13 8 -3 6 -12 -6 -29
-18 -23 -18 -23 -13 -2 3 12 0 21 -5 20 -6 -1 -13 4 -16 12 -3 8 0 11 6 7 7
-4 14 7 18 29 7 39 26 35 29 -5z m-589 -18 c-18 -16 -18 -16 -6 6 6 13 14 21
18 18 3 -4 -2 -14 -12 -24z m724 18 c13 -9 13 -10 0 -9 -8 0 -24 4 -35 9 l-20
9 20 0 c11 0 27 -4 35 -9z m-810 -42 c1 -20 -18 -13 -32 13 l-17 29 24 -17
c13 -10 25 -21 25 -25z m790 -3 c0 -28 -17 -34 -27 -9 -3 9 0 20 8 25 19 12
19 12 19 -16z m-1140 11 c0 -3 -4 -8 -10 -11 -5 -3 -10 -1 -10 4 0 6 5 11 10
11 6 0 10 -2 10 -4z m436 -48 c-19 -27 -21 -19 -4 18 7 14 14 21 16 15 2 -6
-4 -21 -12 -33z m-315 -25 c-12 -20 -14 -14 -5 12 4 9 9 14 11 11 3 -2 0 -13
-6 -23z m853 -10 c12 -16 14 -24 6 -21 -16 5 -46 48 -34 48 5 0 18 -12 28 -27z
m-38 -70 c-4 -12 -13 -23 -21 -23 -10 0 -13 11 -9 46 2 25 7 51 11 57 10 16
26 -51 19 -80z m-487 12 c0 -14 -2 -16 -6 -5 -3 8 -10 18 -16 21 -5 4 -6 12
-2 19 10 16 25 -6 24 -35z m111 31 c0 -3 -4 -8 -10 -11 -5 -3 -10 -1 -10 4 0
6 5 11 10 11 6 0 10 -2 10 -4z m-290 -32 c0 -8 -4 -12 -10 -9 -5 3 -10 10 -10
16 0 5 5 9 10 9 6 0 10 -7 10 -16z m264 -18 c-3 -9 -10 -16 -15 -16 -6 0 -5 9
1 21 13 24 24 20 14 -5z m461 14 c3 -5 1 -10 -4 -10 -6 0 -11 5 -11 10 0 6 2
10 4 10 3 0 8 -4 11 -10z m-558 -40 c-1 -11 -7 -20 -14 -20 -15 0 -15 2 -7 24
9 23 23 20 21 -4z m-140 -3 c-3 -7 1 -26 8 -42 l13 -30 2 45 3 45 7 -45 c8
-50 -1 -84 -24 -93 -23 -9 -46 2 -46 23 0 10 -5 20 -10 22 -6 2 -4 11 5 23 14
17 16 17 11 2 -6 -18 12 -67 25 -67 10 0 0 72 -12 84 -4 5 -4 17 2 28 11 20
24 25 16 5z m283 -38 c-18 -42 -25 -28 -9 16 8 20 15 31 17 25 2 -6 -2 -24 -8
-41z m-370 26 c-7 -9 -15 -13 -17 -11 -7 7 7 26 19 26 6 0 6 -6 -2 -15z m182
-36 c-12 -19 -8 -44 7 -35 4 3 8 -13 8 -35 1 -21 6 -47 12 -56 11 -20 -14 -77
-29 -68 -6 4 -10 -1 -10 -9 0 -9 -8 -14 -20 -13 -17 1 -20 9 -20 47 l-1 45
-24 -45 c-13 -25 -25 -40 -26 -35 -4 25 4 52 23 71 19 21 23 36 35 117 4 31 8
36 19 26 11 -9 14 -7 14 12 0 18 3 20 12 11 10 -10 10 -17 0 -33z m85 19 c-3
-8 -6 -5 -6 6 -1 11 2 17 5 13 3 -3 4 -12 1 -19z m-410 -40 c-3 -7 -5 -2 -5
12 0 14 2 19 5 13 2 -7 2 -19 0 -25z m383 28 c0 -3 -4 -8 -10 -11 -5 -3 -10
-1 -10 4 0 6 5 11 10 11 6 0 10 -2 10 -4z m-240 -31 c0 -8 -4 -15 -10 -15 -5
0 -10 7 -10 15 0 8 5 15 10 15 6 0 10 -7 10 -15z m-173 -17 c-3 -8 -6 -5 -6 6
-1 11 2 17 5 13 3 -3 4 -12 1 -19z m-117 -3 c0 -8 -4 -15 -10 -15 -5 0 -10 7
-10 15 0 8 5 15 10 15 6 0 10 -7 10 -15z m305 -31 c-8 -16 -15 -23 -15 -16 0
13 22 53 27 48 2 -2 -3 -16 -12 -32z m-188 -6 c-3 -8 -6 -5 -6 6 -1 11 2 17 5
13 3 -3 4 -12 1 -19z m561 -33 c-1 -42 -18 -48 -18 -7 0 25 7 42 16 42 2 0 3
-16 2 -35z m-133 -25 c-17 -34 -19 -44 -5 -35 6 3 10 -3 10 -15 0 -14 4 -19
12 -14 7 5 9 2 6 -7 -3 -9 3 -26 13 -40 l19 -24 0 23 c0 12 9 40 19 61 11 21
17 48 14 60 -3 11 -3 21 0 21 3 0 10 -19 15 -42 24 -99 23 -95 8 -63 l-15 30
-1 -32 c0 -18 5 -33 10 -33 6 0 5 -6 -2 -14 -11 -12 -14 -11 -20 3 -4 10 -7
11 -7 3 -1 -7 -7 -19 -14 -27 -12 -11 -17 -8 -32 18 l-19 32 -12 -40 c-6 -22
-9 -54 -7 -72 4 -24 1 -33 -16 -42 -15 -8 -27 -9 -39 -2 -16 10 -16 10 1 11
15 0 21 11 18 32 0 4 6 23 14 42 20 47 18 69 -2 31 l-17 -30 -7 25 -6 25 -11
-25 c-7 -17 -11 -20 -11 -8 -1 9 3 19 8 22 5 3 12 21 15 40 6 30 58 116 71
116 3 0 -1 -13 -10 -30z m617 -29 c3 -21 1 -28 -9 -24 -7 3 -13 18 -13 35 0
36 16 29 22 -11z m-595 -3 c-3 -8 -6 -5 -6 6 -1 11 2 17 5 13 3 -3 4 -12 1
-19z m-264 -81 c33 -39 42 -54 29 -53 -9 0 -21 10 -25 21 -6 16 -10 17 -17 6
-4 -8 -6 -20 -3 -28 3 -7 1 -13 -5 -13 -6 0 -15 12 -21 28 -10 25 -11 24 -6
-13 5 -34 4 -37 -6 -21 -7 11 -15 48 -18 82 -8 76 1 74 72 -9z m262 -37 c3 -5
1 -10 -4 -10 -6 0 -11 5 -11 10 0 6 2 10 4 10 3 0 8 -4 11 -10z m123 -41 c-8
-6 -18 -2 -25 8 -21 27 -15 35 13 17 19 -13 22 -19 12 -25z m-68 -55 c0 -6 -6
-14 -13 -17 -9 -3 -13 6 -13 30 0 31 1 33 13 17 7 -10 13 -23 13 -30z m-201
20 c4 3 8 -9 9 -25 1 -16 -2 -29 -7 -29 -11 0 -21 26 -20 53 0 12 3 16 6 9 2
-6 8 -10 12 -8z m155 -20 c3 -9 5 -28 5 -42 -1 -17 -3 -21 -6 -9 -2 9 -8 15
-13 12 -4 -3 -14 3 -21 12 -12 15 -12 16 4 10 9 -3 17 -2 17 3 0 6 -5 10 -11
10 -5 0 -7 5 -4 10 9 15 22 12 29 -6z m242 -72 c-11 -10 -13 3 -7 43 l6 40 3
-39 c2 -21 1 -41 -2 -44z m-611 -20 c-2 -3 -11 1 -20 8 -8 7 -15 9 -15 4 0 -5
-7 4 -15 20 -25 48 -16 53 20 12 19 -22 33 -41 30 -44z m118 -15 c-3 -4 -2
-16 2 -25 12 -27 15 -62 5 -62 -12 0 -18 22 -25 92 -5 59 -5 61 8 33 8 -16 12
-34 10 -38z m282 13 c-3 -4 4 -33 14 -64 10 -31 15 -59 11 -61 -4 -3 -11 6
-14 20 -4 14 -11 25 -16 25 -5 0 -7 6 -4 14 3 8 0 17 -7 22 -9 5 -10 2 -6 -9
3 -10 2 -17 -2 -17 -12 0 -22 28 -12 34 5 3 12 25 16 48 6 39 8 41 16 20 5
-13 7 -27 4 -32z m-92 -23 c4 3 7 -1 7 -9 0 -9 7 -21 15 -28 16 -14 20 -30 7
-30 -5 0 -15 11 -22 25 -7 14 -19 25 -27 25 -7 0 -13 7 -13 16 0 13 3 14 13 5
8 -6 17 -8 20 -4z m-27 -28 c13 -22 -12 -30 -31 -9 -18 19 -18 20 3 20 11 0
24 -5 28 -11z m-216 -37 c0 -15 -2 -15 -10 -2 -13 20 -13 33 0 25 6 -3 10 -14
10 -23z m630 12 c0 -8 -4 -12 -10 -9 -5 3 -10 10 -10 16 0 5 5 9 10 9 6 0 10
-7 10 -16z m-310 -25 c0 -6 -4 -7 -10 -4 -5 3 -10 11 -10 16 0 6 5 7 10 4 6
-3 10 -11 10 -16z m-40 -37 c0 -7 -4 -10 -10 -7 -5 3 -10 16 -10 28 0 18 2 19
10 7 5 -8 10 -21 10 -28z m317 6 c-3 -8 -6 -5 -6 6 -1 11 2 17 5 13 3 -3 4
-12 1 -19z m107 -4 c5 -14 4 -15 -9 -4 -17 14 -19 20 -6 20 5 0 12 -7 15 -16z
m-624 -49 c8 17 9 18 9 2 1 -10 -6 -20 -14 -23 -10 -4 -13 -13 -10 -25 9 -26
0 -24 -19 6 -15 23 -15 24 1 18 16 -6 16 -5 4 10 -12 15 -12 21 0 44 l14 27 4
-40 c3 -31 5 -35 11 -19z m-60 -15 c0 -27 -4 -50 -9 -50 -14 0 -26 63 -12 68
6 2 11 10 11 18 0 8 2 14 5 14 3 0 5 -22 5 -50z m613 2 c7 1 23 -4 37 -11 23
-13 24 -15 5 -22 -17 -6 -17 -8 -2 -8 9 -1 17 -2 17 -4 0 -1 4 -17 9 -35 6
-20 6 -30 0 -27 -5 4 -9 11 -9 17 0 10 -27 37 -62 62 -17 12 -22 29 -18 61 2
14 4 12 7 -8 2 -15 10 -26 16 -25z m67 5 c0 -16 -18 3 -23 25 -6 22 -5 22 8 4
8 -11 15 -24 15 -29z m-506 -17 c-6 -5 -24 21 -24 34 0 6 6 1 14 -10 8 -10 12
-21 10 -24z m196 10 c0 -5 -7 -7 -15 -4 -8 4 -15 8 -15 10 0 2 7 4 15 4 8 0
15 -4 15 -10z m390 -101 c0 -10 -2 -19 -4 -19 -5 0 -46 79 -46 88 1 17 50 -51
50 -69z m-371 31 c5 -16 7 -30 3 -30 -4 0 -13 14 -19 30 -6 17 -8 30 -3 30 4
0 13 -13 19 -30z m421 -44 c0 -11 0 -11 -29 34 l-23 35 26 -30 c14 -16 26 -34
26 -39z m-853 -22 c-9 -9 -28 6 -21 18 4 6 10 6 17 -1 6 -6 8 -13 4 -17z m29
-15 c8 -14 -18 -31 -30 -19 -9 9 0 30 14 30 5 0 12 -5 16 -11z m13 -84 c0 -5
-6 -1 -14 9 -8 11 -15 24 -15 30 0 5 7 1 15 -10 8 -10 14 -23 14 -29z m655
-29 c8 -20 6 -30 -6 -42 -15 -15 -17 -15 -26 2 -5 11 -12 33 -15 51 -6 30 -5
32 16 24 12 -5 26 -20 31 -35z"/>
<path d="M1081 1594 c0 -11 3 -14 6 -6 3 7 2 16 -1 19 -3 4 -6 -2 -5 -13z"/>
<path d="M1101 1590 c-6 -20 -12 -114 -7 -109 13 13 22 65 15 89 -4 14 -8 23
-8 20z"/>
<path d="M896 1435 c4 -8 8 -15 10 -15 2 0 4 7 4 15 0 8 -4 15 -10 15 -5 0 -7
-7 -4 -15z"/>
<path d="M921 1414 c0 -11 3 -14 6 -6 3 7 2 16 -1 19 -3 4 -6 -2 -5 -13z"/>
<path d="M5385 2840 c10 -11 20 -20 23 -20 3 0 -3 9 -13 20 -10 11 -20 20 -23
20 -3 0 3 -9 13 -20z"/>
<path d="M520 2835 c0 -8 2 -15 4 -15 2 0 6 7 10 15 3 8 1 15 -4 15 -6 0 -10
-7 -10 -15z"/>
<path d="M951 2835 c0 -16 18 -51 18 -36 1 8 7 11 17 7 8 -3 12 -2 9 4 -3 6
-12 10 -20 10 -7 0 -16 6 -18 13 -3 6 -5 8 -6 2z"/>
<path d="M1700 2826 c0 -8 5 -18 12 -22 7 -4 8 -3 4 4 -4 7 -2 12 4 12 6 0 8
5 5 10 -9 15 -25 12 -25 -4z"/>
<path d="M1880 2831 c0 -7 11 -24 25 -37 32 -30 32 -14 0 23 -14 16 -24 22
-25 14z"/>
<path d="M356 2815 c-3 -8 -1 -15 4 -15 6 0 10 7 10 15 0 8 -2 15 -4 15 -2 0
-6 -7 -10 -15z"/>
<path d="M1315 2820 c-3 -5 1 -10 9 -10 8 0 18 5 21 10 3 6 -1 10 -9 10 -8 0
-18 -4 -21 -10z"/>
<path d="M605 2810 c-3 -5 -1 -10 4 -10 6 0 11 5 11 10 0 6 -2 10 -4 10 -3 0
-8 -4 -11 -10z"/>
<path d="M5267 2809 c6 -6 26 -12 44 -14 19 -1 47 -8 62 -14 46 -18 66 -13 31
8 -19 11 -44 17 -67 16 -20 -2 -39 1 -43 6 -3 5 -13 9 -22 9 -11 0 -13 -3 -5
-11z"/>
<path d="M445 2784 c-16 -25 -16 -25 5 -14 22 12 43 5 25 -8 -6 -4 -11 -23
-13 -42 l-3 -35 26 49 c14 27 24 50 23 51 -2 1 -13 7 -24 13 -19 10 -24 8 -39
-14z"/>
<path d="M1780 2790 c0 -5 5 -10 10 -10 6 0 10 5 10 10 0 6 -4 10 -10 10 -5 0
-10 -4 -10 -10z"/>
<path d="M1430 2778 c0 -7 5 -20 11 -28 9 -12 10 -11 6 7 -3 12 0 24 7 27 6 2
3 5 -6 5 -10 1 -18 -5 -18 -11z"/>
<path d="M5455 2760 c-8 -13 15 -13 35 0 12 8 11 10 -7 10 -12 0 -25 -4 -28
-10z"/>
<path d="M370 2739 c-10 -7 -11 -12 -4 -15 7 -3 9 -15 7 -27 -4 -17 -3 -19 6
-11 7 6 11 23 9 38 -2 20 -6 23 -18 15z"/>
<path d="M1410 2741 c0 -6 4 -13 10 -16 6 -3 7 1 4 9 -7 18 -14 21 -14 7z"/>
<path d="M539 2713 c-13 -16 -12 -17 4 -4 16 13 21 21 13 21 -2 0 -10 -8 -17
-17z"/>
<path d="M1481 2709 c-1 -15 5 -31 12 -37 10 -9 17 -4 31 18 9 17 12 30 7 30
-6 0 -11 -7 -11 -15 0 -22 -15 -18 -28 8 -11 22 -11 22 -11 -4z"/>
<path d="M5470 2703 c-44 -14 -46 -17 -47 -55 -1 -26 3 -41 13 -45 20 -7 17
-37 -6 -64 l-21 -24 3 25 c3 24 1 25 -49 23 -41 -2 -53 1 -53 12 0 8 5 15 10
15 15 0 12 20 -5 26 -8 3 -28 -4 -44 -15 -16 -12 -36 -21 -43 -21 -15 0 -55
-37 -47 -43 2 -2 16 -8 31 -15 16 -6 35 -28 45 -49 14 -29 28 -41 57 -51 36
-12 40 -11 65 14 22 22 32 25 65 21 45 -6 96 1 96 14 0 5 -13 6 -30 3 -39 -8
-38 7 3 42 18 16 27 29 20 31 -7 2 -9 11 -6 20 5 12 1 14 -17 8 -15 -5 -20 -4
-16 4 4 7 -1 11 -12 11 -18 0 -32 18 -32 41 0 5 18 21 40 35 22 15 40 33 40
40 0 17 -2 16 -60 -3z m-200 -152 c0 -4 -3 -11 -7 -14 -8 -9 -34 13 -28 24 6
9 35 1 35 -10z"/>
<path d="M1700 2690 c8 -5 20 -10 25 -10 6 0 3 5 -5 10 -8 5 -19 10 -25 10 -5
0 -3 -5 5 -10z"/>
<path d="M6165 2680 c-15 -17 -16 -20 -3 -20 9 0 19 7 22 16 10 25 1 27 -19 4z"/>
<path d="M435 2680 c-8 -13 3 -30 18 -30 8 0 7 3 -2 9 -7 5 -10 14 -7 20 4 6
5 11 2 11 -3 0 -8 -4 -11 -10z"/>
<path d="M1374 2670 c-9 -9 -8 -16 6 -30 21 -21 16 -62 -8 -58 -8 2 -17 -4
-19 -12 -3 -11 -2 -11 4 -3 5 8 14 9 23 3 12 -8 12 -10 -3 -16 -9 -3 -14 -10
-11 -16 10 -16 77 62 79 93 2 25 0 27 -16 19 -27 -15 -37 -12 -41 11 -2 15 -6
17 -14 9z"/>
<path d="M345 2644 c-9 -15 -12 -23 -6 -20 11 7 35 46 28 46 -3 0 -12 -12 -22
-26z"/>
<path d="M1313 2653 c-18 -7 -16 -23 2 -23 8 0 15 7 15 15 0 8 -1 15 -2 14 -2
0 -9 -3 -15 -6z"/>
<path d="M6226 2635 c-9 -14 -25 -25 -35 -25 -29 0 -33 -27 -6 -44 13 -9 29
-16 34 -16 11 0 31 -32 31 -48 0 -5 -13 -26 -30 -47 -16 -21 -30 -43 -30 -49
0 -6 5 -4 10 4 8 12 13 13 30 3 11 -7 22 -13 25 -13 3 0 5 59 4 130 -1 72 -5
130 -9 130 -4 0 -15 -11 -24 -25z"/>
<path d="M1086 2632 c-3 -5 10 -14 29 -20 28 -8 35 -7 35 3 0 21 -53 35 -64
17z"/>
<path d="M5020 2626 c0 -8 -7 -16 -15 -20 -8 -3 -12 -12 -9 -20 3 -8 0 -17 -5
-21 -18 -10 -3 -24 19 -18 16 4 20 14 20 49 0 24 -2 44 -5 44 -3 0 -5 -6 -5
-14z"/>
<path d="M5576 2599 c-31 -53 -25 -69 25 -69 29 0 39 4 39 16 0 18 16 17 110
-9 105 -28 110 -29 110 -12 0 8 -7 15 -15 15 -28 0 -93 39 -100 59 -8 25 -31
34 -56 21 -14 -8 -27 -7 -48 5 -17 8 -32 15 -35 15 -3 0 -16 -19 -30 -41z"/>
<path d="M1256 2621 c-4 -7 -5 -15 -2 -18 9 -9 19 4 14 18 -4 11 -6 11 -12 0z"/>
<path d="M4927 2623 c-4 -3 -6 -18 -6 -32 1 -21 2 -22 6 -6 3 11 12 26 21 33
14 10 14 12 1 12 -9 0 -19 -3 -22 -7z"/>
<path d="M490 2609 c0 -5 5 -7 10 -4 6 3 10 8 10 11 0 2 -4 4 -10 4 -5 0 -10
-5 -10 -11z"/>
<path d="M2031 2584 c0 -11 3 -14 6 -6 3 7 2 16 -1 19 -3 4 -6 -2 -5 -13z"/>
<path d="M575 2581 c-3 -5 -1 -12 5 -16 5 -3 10 1 10 9 0 18 -6 21 -15 7z"/>
<path d="M4819 2588 c-8 -27 -5 -38 11 -38 10 0 25 -3 34 -6 23 -9 20 23 -3
36 -18 9 -40 13 -42 8z"/>
<path d="M5089 2568 c4 -13 17 -25 27 -27 17 -3 17 -2 3 20 -22 32 -41 37 -30
7z"/>
<path d="M6098 2568 c7 -7 12 -22 12 -35 l0 -23 -47 23 c-27 14 -73 27 -103
31 -50 6 -53 5 -36 -9 22 -17 16 -27 -16 -32 -30 -5 -30 -4 -30 -70 0 -32 -6
-68 -14 -80 -12 -19 -11 -23 8 -35 14 -9 19 -19 13 -27 -6 -11 -9 -11 -16 0
-7 11 -13 9 -28 -10 -36 -46 0 -67 60 -35 40 20 59 12 59 -26 0 -33 -11 -38
-30 -15 -14 17 -50 20 -50 5 0 -15 -49 -32 -72 -24 -15 4 -19 12 -15 30 5 29
0 30 -33 4 -14 -11 -28 -20 -31 -20 -4 0 -14 17 -22 39 -9 21 -30 50 -47 65
-36 30 -62 35 -37 8 33 -36 22 -45 -43 -38 l-60 7 -29 -61 c-20 -40 -25 -60
-16 -60 30 0 71 -90 54 -119 -5 -9 -14 -29 -19 -44 l-10 -28 -54 30 c-29 17
-65 31 -79 31 -24 0 -26 -2 -17 -26 6 -14 10 -38 10 -54 0 -25 -5 -31 -39 -41
-22 -6 -51 -9 -66 -5 -28 7 -46 37 -27 44 13 4 17 52 4 52 -4 0 -12 10 -17 22
-6 12 -16 23 -22 26 -16 5 -17 -30 -2 -45 8 -8 8 -13 -1 -18 -20 -12 -60 5
-72 30 -6 14 -22 32 -35 40 -12 9 -23 24 -23 34 0 10 -7 24 -15 31 -23 19 -85
-13 -85 -45 0 -13 -10 -31 -21 -39 l-22 -15 25 -29 c41 -49 53 -87 38 -123 -7
-17 -24 -35 -37 -40 -12 -4 -23 -15 -23 -23 0 -16 -61 -33 -79 -21 -6 3 -11
17 -11 31 0 13 -5 24 -10 24 -6 0 -8 -11 -4 -26 15 -61 -44 -97 -86 -52 -17
18 -20 19 -20 5 0 -9 -4 -17 -10 -17 -5 0 -7 -7 -4 -15 4 -10 0 -15 -11 -15
-15 0 -16 -2 -4 -16 11 -14 10 -19 -10 -36 -14 -10 -31 -23 -40 -28 -14 -8
-14 -10 2 -22 16 -12 16 -15 -8 -50 -14 -21 -22 -44 -19 -53 4 -9 9 -14 13
-13 3 2 18 10 33 17 15 8 32 28 38 45 29 76 25 73 86 79 31 3 62 11 67 16 6 6
25 11 42 11 16 1 41 7 55 15 28 16 86 20 94 6 3 -5 -9 -8 -27 -7 -28 1 -32 -2
-35 -28 -6 -54 71 -91 84 -41 3 14 10 22 15 19 12 -7 -18 -52 -45 -66 -12 -7
-41 -15 -66 -18 -45 -5 -45 -5 -45 -45 0 -45 10 -49 64 -28 50 20 64 18 51 -8
-15 -28 -5 -35 30 -22 39 15 43 7 20 -37 -11 -21 -16 -41 -13 -44 6 -6 -5 -34
-39 -100 -7 -13 -6 -21 4 -28 10 -7 10 -11 1 -15 -23 -9 -14 -33 12 -33 17 0
25 -6 25 -17 0 -10 7 -26 14 -35 16 -22 56 -24 56 -3 0 22 17 19 23 -4 12 -45
160 -80 197 -46 14 12 27 15 51 10 l32 -7 -6 38 c-4 22 -13 44 -21 49 -12 9
-11 14 5 34 16 19 19 20 19 6 0 -20 27 -44 51 -45 12 0 15 -11 15 -52 -1 -42
-8 -65 -34 -106 -18 -29 -39 -55 -47 -58 -23 -9 -18 -31 7 -30 18 1 24 -8 35
-46 8 -25 21 -49 30 -52 22 -9 83 15 85 34 3 37 18 90 32 115 6 11 11 25 12
30 3 40 60 95 83 80 12 -7 58 47 65 78 7 28 24 35 43 16 9 -9 11 -3 9 22 -4
46 -23 74 -63 93 -76 36 -130 9 -135 -69 -4 -66 -28 -69 -59 -6 -13 25 -34 50
-46 56 -28 12 -29 20 -3 42 11 10 20 28 20 40 0 23 4 27 53 64 15 11 27 25 27
30 0 16 -26 10 -44 -10 -20 -22 -60 -17 -52 6 3 7 -1 16 -9 19 -19 8 -19 24 0
24 8 0 25 10 37 22 19 19 21 19 16 2 -3 -10 -9 -27 -13 -36 -12 -29 13 -21 52
17 19 19 40 33 47 32 6 -1 12 12 14 28 6 59 21 79 85 112 34 18 74 37 90 43
33 12 44 35 27 55 -19 23 -32 18 -19 -7 12 -22 11 -22 -8 -6 -15 14 -22 15
-31 6 -13 -13 -16 0 -4 18 14 20 38 22 61 5 26 -20 70 -16 78 7 4 8 -5 34 -18
59 -20 36 -28 43 -46 38 -18 -4 -23 -1 -23 14 0 25 -16 36 -23 17 -6 -14 -48
-14 -116 0 l-24 5 22 15 c11 8 21 21 21 28 0 8 7 16 15 20 8 3 15 15 15 26 0
13 7 20 20 20 12 0 39 9 60 20 37 19 45 30 41 54 -3 17 11 47 21 44 5 -2 9 -6
8 -8 -1 -3 10 -29 25 -57 25 -51 45 -68 45 -39 0 7 7 19 16 27 10 8 15 26 13
53 -3 61 -1 64 27 58 19 -3 34 3 59 28 18 18 38 29 43 26 6 -4 17 3 25 15 9
12 17 16 21 10 4 -6 14 -3 27 10 11 11 24 17 29 14 6 -4 10 9 10 28 0 26 -5
36 -20 40 -10 3 -25 -2 -32 -10 -10 -13 -13 -12 -20 7 -4 12 -12 18 -18 15 -5
-3 -10 3 -10 14 0 12 4 21 10 21 16 0 5 126 -13 144 -11 12 -17 13 -20 3 -4
-9 -7 -9 -18 1 -17 16 -37 16 -21 0z m-56 -90 c-7 -7 -12 -8 -12 -2 0 14 12
26 19 19 2 -3 -1 -11 -7 -17z m53 -30 c-4 -13 -9 -31 -12 -41 -7 -28 25 -57
64 -57 18 0 33 -3 33 -8 0 -9 -91 -9 -106 0 -6 4 -10 30 -9 60 3 70 3 68 21
68 11 0 14 -6 9 -22z m55 6 c0 -8 -5 -12 -10 -9 -6 4 -8 11 -5 16 9 14 15 11
15 -7z m90 -134 c0 -5 -2 -10 -4 -10 -3 0 -8 5 -11 10 -3 6 -1 10 4 10 6 0 11
-4 11 -10z m-573 -375 c-14 -17 -28 18 -22 55 15 92 20 97 25 25 3 -38 1 -74
-3 -80z m-75 53 c9 -15 14 -48 14 -94 -1 -71 -1 -71 29 -80 29 -9 30 -12 30
-64 0 -46 -3 -55 -19 -58 -10 -2 -23 3 -28 12 -9 16 -75 39 -90 30 -4 -3 1
-17 12 -31 11 -14 20 -34 20 -43 0 -10 7 -23 15 -30 25 -21 18 -49 -17 -64
-55 -23 -72 13 -26 57 10 10 18 27 18 37 0 18 -3 18 -27 7 -16 -6 -33 -18 -39
-26 -8 -10 -15 -11 -32 -2 -31 16 -34 14 -27 -19 4 -20 3 -30 -5 -30 -14 0
-43 -67 -34 -81 3 -6 12 -8 20 -5 9 4 14 -2 14 -15 0 -23 16 -42 43 -52 19 -7
22 -23 6 -33 -6 -3 -21 5 -33 19 -11 14 -42 34 -68 46 -56 23 -61 44 -18 66
32 17 32 35 -1 35 -37 0 -15 65 25 72 23 4 34 28 12 28 -21 0 -30 18 -16 35 9
10 7 16 -7 24 -10 6 -12 11 -5 11 14 0 17 40 2 40 -5 0 1 11 13 24 54 58 77
87 77 97 0 7 11 8 30 4 39 -9 58 6 66 54 11 59 22 66 46 29z m-404 -49 c-35
-20 -8 -62 32 -52 13 3 19 -4 23 -27 4 -17 11 -29 17 -25 5 3 10 0 10 -7 0 -7
-10 -19 -21 -27 -18 -11 -23 -11 -30 1 -5 7 -9 18 -9 24 0 6 -9 19 -20 29 -10
9 -19 20 -18 24 1 3 -2 14 -6 24 -11 24 0 47 21 47 17 -1 17 -1 1 -11z m-13
-227 c-11 -11 -34 8 -28 24 6 15 7 15 20 -1 7 -10 11 -21 8 -23z m300 -242 c3
-5 1 -10 -4 -10 -6 0 -11 5 -11 10 0 6 2 10 4 10 3 0 8 -4 11 -10z m-119 -48
c13 -32 12 -34 -6 -39 -28 -8 -28 -82 0 -108 20 -18 29 -72 10 -60 -6 4 -8 10
-6 14 6 9 -51 71 -65 71 -4 0 -11 10 -14 21 -4 13 -10 17 -14 11 -3 -6 -18
-15 -32 -20 -30 -12 -59 1 -59 27 0 25 -28 47 -41 34 -8 -8 -7 -17 1 -32 12
-23 11 -24 -37 -34 -27 -6 -27 -4 -10 46 19 53 28 60 63 47 23 -9 31 -8 40 4
6 9 16 16 23 16 6 0 19 8 30 19 12 12 31 18 60 17 38 -1 44 -4 57 -34z m114
-50 c0 -13 -12 -22 -22 -16 -10 6 -1 24 13 24 5 0 9 -4 9 -8z m10 -57 c0 -8
-7 -15 -15 -15 -16 0 -20 12 -8 23 11 12 23 8 23 -8z m9 -79 c9 -10 8 -15 -4
-20 -10 -4 -15 1 -15 14 0 24 4 25 19 6z m271 -51 c0 -9 -6 -12 -15 -9 -8 4
-12 10 -9 15 8 14 24 10 24 -6z m-237 -219 c4 -9 -3 -16 -19 -19 -27 -5 -29
-2 -11 18 15 18 24 18 30 1z"/>
<path d="M5488 1853 c-10 -2 -18 -11 -18 -19 0 -7 -11 -21 -25 -30 -35 -23
-34 -67 1 -83 29 -13 38 -6 70 53 13 24 20 27 45 22 26 -5 29 -3 29 20 0 23
-4 26 -25 22 -14 -3 -30 1 -36 8 -6 8 -14 13 -18 13 -3 -1 -14 -3 -23 -6z"/>
<path d="M5375 1619 c-8 -23 -1 -34 14 -24 13 8 15 45 2 45 -5 0 -13 -9 -16
-21z"/>
<path d="M5230 1830 c0 -5 5 -10 11 -10 5 0 7 5 4 10 -3 6 -8 10 -11 10 -2 0
-4 -4 -4 -10z"/>
<path d="M5290 1440 c0 -5 5 -10 11 -10 5 0 7 5 4 10 -3 6 -8 10 -11 10 -2 0
-4 -4 -4 -10z"/>
<path d="M5290 1375 c0 -8 5 -15 10 -15 6 0 10 7 10 15 0 8 -4 15 -10 15 -5 0
-10 -7 -10 -15z"/>
<path d="M2271 2502 c-6 -31 -14 -69 -17 -84 -4 -17 -2 -28 4 -28 6 0 13 18
17 39 4 22 12 45 19 50 13 11 10 67 -4 76 -4 3 -13 -21 -19 -53z"/>
<path d="M4776 2551 c-3 -5 -21 -12 -40 -15 -23 -4 -33 -11 -30 -20 3 -9 -4
-11 -26 -8 -18 3 -30 0 -30 -7 0 -7 -9 -9 -26 -5 -23 6 -25 4 -20 -14 4 -11 3
-23 -2 -26 -5 -3 -7 -24 -5 -47 2 -29 -3 -55 -18 -82 l-20 -40 23 15 c13 8 25
24 27 34 1 11 10 26 18 36 12 13 12 20 2 36 -16 25 2 46 49 57 17 3 47 17 67
31 20 13 40 24 45 24 13 0 13 27 1 35 -5 3 -12 1 -15 -4z"/>
<path d="M1105 2540 c3 -5 11 -10 16 -10 6 0 7 5 4 10 -3 6 -11 10 -16 10 -6
0 -7 -4 -4 -10z"/>
<path d="M1513 2533 c0 -15 19 -12 24 3 2 6 -3 11 -10 11 -8 0 -14 -6 -14 -14z"/>
<path d="M2027 2536 c-3 -8 5 -18 19 -25 35 -16 37 -14 17 14 -21 28 -29 31
-36 11z"/>
<path d="M1326 2532 c-3 -6 -1 -14 5 -17 14 -9 20 -2 10 14 -6 8 -11 9 -15 3z"/>
<path d="M1300 2500 c0 -5 5 -10 11 -10 5 0 7 5 4 10 -3 6 -8 10 -11 10 -2 0
-4 -4 -4 -10z"/>
<path d="M1560 2493 c0 -13 5 -23 10 -23 13 0 13 11 0 30 -8 12 -10 11 -10 -7z"/>
<path d="M1007 2493 c-4 -3 -7 -16 -6 -27 0 -19 1 -19 10 3 10 24 8 36 -4 24z"/>
<path d="M4955 2476 c-22 -13 -52 -22 -67 -22 -17 1 -28 -4 -28 -11 0 -16 -16
-17 -25 -2 -5 7 -12 5 -24 -5 -9 -8 -29 -19 -44 -25 -33 -13 -44 -36 -27 -56
11 -13 17 -11 48 16 32 28 39 31 83 25 34 -5 48 -3 52 6 3 10 9 10 24 2 16
-10 22 -8 32 8 11 18 11 20 -3 15 -12 -5 -16 0 -16 18 0 18 5 23 23 23 47 -3
81 2 72 11 -23 20 -61 19 -100 -3z"/>
<path d="M2015 2480 c3 -5 8 -10 11 -10 2 0 4 5 4 10 0 6 -5 10 -11 10 -5 0
-7 -4 -4 -10z"/>
<path d="M2090 2475 c0 -8 5 -15 10 -15 6 0 10 7 10 15 0 8 -4 15 -10 15 -5 0
-10 -7 -10 -15z"/>
<path d="M2114 2456 c-8 -17 -8 -27 1 -39 16 -22 25 -11 25 30 0 39 -11 43
-26 9z"/>
<path d="M1511 2454 c0 -11 3 -14 6 -6 3 7 2 16 -1 19 -3 4 -6 -2 -5 -13z"/>
<path d="M5140 2440 c0 -23 5 -30 19 -30 11 0 21 5 23 12 3 7 9 8 18 3 10 -6
6 -11 -13 -21 -32 -18 -43 -49 -26 -81 9 -17 10 -26 2 -31 -6 -4 -9 -19 -6
-35 5 -24 10 -27 47 -27 23 0 64 -8 92 -19 67 -24 117 -33 139 -25 17 7 17 8
-1 21 -18 13 -18 15 -2 44 14 25 15 34 5 50 -7 12 -19 18 -29 15 -23 -5 -25
36 -3 54 21 17 19 30 -5 30 -13 0 -20 -7 -20 -18 0 -18 -29 -52 -43 -52 -4 0
-25 11 -46 25 -26 16 -41 34 -46 54 -9 41 -31 58 -56 43 -10 -7 -19 -8 -19 -3
0 5 -7 11 -15 15 -11 4 -15 -2 -15 -24z"/>
<path d="M4065 2450 c3 -5 12 -10 20 -10 8 0 17 5 20 10 4 6 -5 10 -20 10 -15
0 -24 -4 -20 -10z"/>
<path d="M5706 2435 c9 -38 12 -41 26 -27 10 10 7 17 -11 35 l-22 22 7 -30z"/>
<path d="M5010 2430 c0 -10 8 -24 19 -29 10 -6 24 -30 30 -56 7 -29 17 -45 26
-45 41 0 23 96 -24 129 -36 26 -51 26 -51 1z"/>
<path d="M5640 2440 c0 -5 7 -10 16 -10 8 0 12 5 9 10 -3 6 -10 10 -16 10 -5
0 -9 -4 -9 -10z"/>
<path d="M992 2420 c0 -14 2 -19 5 -12 2 6 2 18 0 25 -3 6 -5 1 -5 -13z"/>
<path d="M1497 2410 c3 -11 9 -20 14 -20 11 0 11 3 3 24 -9 23 -23 20 -17 -4z"/>
<path d="M5600 2420 c19 -13 30 -13 30 0 0 6 -10 10 -22 10 -19 0 -20 -2 -8
-10z"/>
<path d="M1480 2355 c0 -8 4 -15 10 -15 5 0 7 7 4 15 -4 8 -8 15 -10 15 -2 0
-4 -7 -4 -15z"/>
<path d="M1511 2363 c0 -5 4 -17 9 -28 8 -18 9 -17 9 8 1 15 -3 27 -9 27 -5 0
-10 -3 -9 -7z"/>
<path d="M412 2330 c-11 -18 -10 -19 12 -10 13 5 26 7 28 4 3 -2 5 2 5 9 0 20
-32 18 -45 -3z"/>
<path d="M510 2335 c0 -15 18 -40 24 -34 3 3 -1 14 -9 25 -8 10 -14 15 -15 9z"/>
<path d="M990 2277 c0 -48 3 -57 26 -72 14 -9 28 -14 31 -11 3 3 -2 8 -11 12
-9 3 -16 13 -16 21 0 8 -5 11 -12 7 -8 -5 -9 5 -5 39 4 26 2 49 -3 52 -6 4
-10 -15 -10 -48z"/>
<path d="M430 2301 c0 -8 -8 -23 -17 -34 -10 -11 -12 -17 -4 -12 10 6 11 2 6
-15 -6 -19 -4 -22 10 -16 14 5 15 3 8 -6 -12 -15 -13 -48 -2 -48 5 0 13 9 19
21 9 16 8 26 -5 45 -9 14 -15 30 -13 36 2 6 10 -3 17 -20 16 -39 31 -41 31 -4
0 20 -3 23 -10 12 -7 -12 -12 -7 -24 20 -8 19 -15 29 -16 21z"/>
<path d="M547 2297 c-4 -10 -7 -26 -7 -35 1 -15 2 -15 11 1 6 10 9 25 7 35 -3
16 -4 15 -11 -1z"/>
<path d="M4646 2289 c-22 -21 -11 -24 31 -8 22 8 24 12 13 19 -20 13 -22 12
-44 -11z"/>
<path d="M958 2288 c-3 -7 -1 -24 3 -38 6 -21 7 -19 6 13 0 39 -2 45 -9 25z"/>
<path d="M1030 2293 c0 -4 5 -15 10 -23 8 -13 10 -13 10 2 0 9 -4 20 -10 23
-5 3 -10 3 -10 -2z"/>
<path d="M926 2238 c-11 -15 -12 -25 -5 -34 5 -7 7 -25 4 -41 l-6 -28 25 30
c14 17 26 37 25 45 0 12 -2 11 -7 -2 -5 -12 -11 -15 -21 -8 -12 7 -13 13 -3
34 14 32 8 34 -12 4z"/>
<path d="M4526 2245 c-29 -22 -16 -23 24 -3 25 13 29 18 15 18 -11 0 -29 -7
-39 -15z"/>
<path d="M1540 2241 c0 -5 5 -13 10 -16 6 -3 10 -2 10 4 0 5 -4 13 -10 16 -5
3 -10 2 -10 -4z"/>
<path d="M4881 2241 c-14 -4 -26 -12 -29 -20 -3 -9 4 -9 27 3 17 9 31 19 31
21 0 3 -1 5 -2 4 -2 -1 -14 -4 -27 -8z"/>
<path d="M392 2220 c0 -14 2 -19 5 -12 2 6 2 18 0 25 -3 6 -5 1 -5 -13z"/>
<path d="M512 2204 c-2 -42 -22 -71 -42 -59 -5 3 -10 1 -10 -6 0 -6 -6 -17
-14 -23 -8 -6 -17 -26 -20 -45 -5 -35 8 -32 17 4 3 13 5 9 6 -12 1 -33 -10
-39 -55 -34 -7 1 -14 -4 -17 -11 -7 -20 15 -131 30 -146 7 -7 13 -18 13 -25 0
-6 13 9 29 34 32 49 81 99 81 81 0 -7 5 -12 11 -12 7 0 5 10 -5 25 -9 13 -17
39 -17 57 -1 22 -3 26 -6 11 -2 -12 -10 -24 -18 -27 -17 -6 -11 52 11 105 9
20 14 54 11 80 l-4 44 -1 -41z m-41 -171 c-8 -15 -10 -15 -11 -2 0 17 10 32
18 25 2 -3 -1 -13 -7 -23z"/>
<path d="M1092 2205 c0 -16 2 -22 5 -12 2 9 2 23 0 30 -3 6 -5 -1 -5 -18z"/>
<path d="M6199 2221 c-8 -3 -32 -20 -52 -36 -31 -27 -37 -38 -43 -87 l-7 -57
33 -8 c45 -12 58 -34 40 -68 -13 -25 -18 -27 -62 -22 -45 6 -47 5 -51 -21 -4
-26 -4 -26 -12 -5 -11 35 -23 18 -21 -30 1 -23 -1 -49 -6 -58 -10 -22 15 -43
40 -35 29 10 48 -18 34 -49 -7 -14 -16 -25 -22 -25 -6 0 -26 -17 -45 -37 -27
-30 -32 -40 -24 -56 7 -13 7 -23 -2 -33 -9 -11 -7 -14 14 -14 37 0 60 27 52
59 -13 46 -11 56 12 59 38 6 53 39 53 118 0 51 4 75 15 84 20 16 71 3 90 -23
20 -28 20 -83 0 -91 -26 -10 -12 -96 15 -96 6 0 10 92 10 226 0 186 -3 228
-15 241 -8 8 -15 25 -15 38 0 28 -9 35 -31 26z m-94 -361 c3 -5 1 -10 -4 -10
-6 0 -11 5 -11 10 0 6 2 10 4 10 3 0 8 -4 11 -10z"/>
<path d="M4400 2190 c0 -5 5 -10 10 -10 6 0 10 5 10 10 0 6 -4 10 -10 10 -5 0
-10 -4 -10 -10z"/>
<path d="M4480 2179 c-7 -11 -10 -23 -7 -25 2 -2 9 7 15 21 14 30 7 33 -8 4z"/>
<path d="M890 2180 c-2 -8 -2 -33 -1 -55 3 -39 2 -39 -14 -20 -15 18 -16 18
-11 2 3 -10 6 -23 6 -28 0 -5 4 -9 8 -9 16 0 28 45 21 85 -3 22 -7 33 -9 25z"/>
<path d="M6245 2181 c-3 -5 -1 -12 5 -16 5 -3 10 1 10 9 0 18 -6 21 -15 7z"/>
<path d="M537 2124 c-4 -21 -5 -39 -4 -41 7 -7 23 56 17 67 -4 7 -10 -4 -13
-26z"/>
<path d="M4380 2120 c-11 -22 -17 -40 -12 -40 9 0 25 29 36 63 10 30 -3 18
-24 -23z"/>
<path d="M5087 2146 c-6 -15 32 -36 66 -36 12 0 28 9 35 21 12 19 11 20 -21
14 -21 -4 -37 -3 -41 4 -10 15 -33 14 -39 -3z"/>
<path d="M4740 2133 c-35 -5 -80 -24 -80 -33 0 -8 101 -50 120 -50 13 0 13 17
-1 26 -6 3 -9 17 -6 30 5 28 1 31 -33 27z"/>
<path d="M568 2110 c-11 -38 -10 -56 3 -43 6 6 9 23 7 39 l-3 29 -7 -25z"/>
<path d="M346 2084 c-3 -8 -1 -25 4 -38 5 -14 5 -27 -1 -33 -6 -6 -6 -20 1
-37 5 -15 10 -41 10 -59 0 -24 -3 -28 -12 -19 -16 16 -28 15 -28 -3 0 -8 -4
-15 -10 -15 -5 0 -10 -9 -10 -20 0 -11 4 -20 10 -20 5 0 12 -16 16 -35 4 -25
15 -40 40 -54 l34 -20 0 27 c0 16 -6 34 -12 42 -7 8 -3 6 10 -4 22 -19 32 -76
12 -76 -13 0 -13 -71 1 -90 9 -12 10 -12 5 4 -5 13 -2 17 9 12 8 -3 15 -1 15
4 0 6 -4 10 -10 10 -5 0 -10 5 -10 10 0 22 49 9 72 -18 13 -16 35 -31 49 -34
22 -4 24 -2 23 36 -2 50 -25 118 -41 124 -18 5 -16 -16 7 -63 23 -47 25 -65 8
-65 -9 0 -8 -4 2 -11 13 -9 13 -10 0 -6 -8 2 -14 11 -13 18 2 8 -11 20 -30 27
-26 10 -29 14 -17 22 8 5 10 10 4 10 -6 0 -11 7 -11 15 0 22 5 19 22 -16 20
-38 29 -33 14 9 -7 20 -18 32 -32 34 -13 2 -29 16 -37 34 -9 17 -21 29 -27 27
-18 -6 -42 38 -41 77 1 19 -2 56 -6 81 -5 36 -3 50 9 62 20 20 19 29 -4 49
-16 14 -20 14 -25 2z m34 -24 c0 -5 -5 -10 -11 -10 -5 0 -7 5 -4 10 3 6 8 10
11 10 2 0 4 -4 4 -10z m-20 -250 c-9 -17 -14 -19 -20 -10 -10 16 11 53 23 41
5 -5 4 -19 -3 -31z m20 -35 c0 -8 -4 -15 -10 -15 -5 0 -10 7 -10 15 0 8 5 15
10 15 6 0 10 -7 10 -15z"/>
<path d="M990 2065 c0 -15 4 -24 10 -20 6 3 10 12 10 20 0 8 -4 17 -10 20 -6
4 -10 -5 -10 -20z"/>
<path d="M2394 2079 c-3 -6 -26 -19 -50 -30 -41 -17 -43 -20 -32 -39 17 -27
44 -21 40 9 -2 13 0 21 5 18 4 -2 18 9 31 24 13 16 21 29 18 29 -2 0 -8 -5
-12 -11z"/>
<path d="M2437 2048 c-7 -26 -4 -31 15 -26 11 2 12 8 2 26 l-11 23 -6 -23z"/>
<path d="M585 2045 c-16 -49 -16 -51 0 -31 15 19 20 46 10 46 -3 0 -8 -7 -10
-15z"/>
<path d="M4552 2039 c-9 -14 -10 -25 -4 -31 7 -7 16 0 26 21 13 24 13 31 4 31
-7 0 -19 -10 -26 -21z"/>
<path d="M5850 2046 c0 -7 -9 -25 -21 -40 -19 -24 -19 -46 1 -46 11 0 29 32
40 71 7 22 5 29 -6 29 -8 0 -14 -6 -14 -14z"/>
<path d="M5910 2039 c0 -12 5 -19 12 -17 18 6 20 25 3 31 -10 5 -15 0 -15 -14z"/>
<path d="M972 2030 c0 -14 2 -19 5 -12 2 6 2 18 0 25 -3 6 -5 1 -5 -13z"/>
<path d="M4396 2011 c-4 -7 -5 -15 -2 -18 9 -9 19 4 14 18 -4 11 -6 11 -12 0z"/>
<path d="M2368 1977 c-12 -9 -14 -18 -7 -35 7 -19 12 -21 29 -12 11 6 25 20
31 32 10 18 9 20 -7 14 -9 -4 -20 -2 -24 4 -4 7 -12 6 -22 -3z"/>
<path d="M100 1934 c-16 -41 -12 -46 20 -23 23 17 27 26 19 36 -17 20 -28 16
-39 -13z"/>
<path d="M501 1926 c-7 -9 -9 -25 -4 -43 4 -15 6 -34 5 -40 -2 -7 2 -13 8 -13
5 0 10 7 10 16 0 8 5 12 10 9 14 -9 12 17 -3 54 -12 27 -16 30 -26 17z"/>
<path d="M992 1920 c0 -14 2 -19 5 -12 2 6 2 18 0 25 -3 6 -5 1 -5 -13z"/>
<path d="M2388 1914 c-12 -18 30 -154 47 -154 3 0 -2 17 -10 38 -8 20 -19 57
-23 82 -4 25 -11 40 -14 34z"/>
<path d="M10 1875 c-8 -9 -8 -15 -2 -15 12 0 26 19 19 26 -2 2 -10 -2 -17 -11z"/>
<path d="M455 1868 c-8 -19 18 -98 27 -82 3 5 -1 29 -7 54 -9 34 -14 41 -20
28z"/>
<path d="M3970 1805 c12 -20 20 -41 17 -48 -3 -7 8 -20 24 -29 24 -14 29 -15
29 -3 0 8 -5 15 -10 15 -6 0 -24 23 -41 50 -17 28 -33 50 -36 50 -2 0 5 -16
17 -35z"/>
<path d="M4039 1821 c13 -12 28 -21 34 -21 12 0 11 0 -28 24 l-30 17 24 -20z"/>
<path d="M288 1760 c-6 -54 -3 -62 23 -78 19 -12 20 -12 13 10 -4 13 -13 43
-19 68 l-12 45 -5 -45z"/>
<path d="M4487 1773 c-24 -4 -28 -8 -23 -26 3 -12 6 -27 6 -33 0 -7 11 -14 25
-17 32 -6 62 18 71 56 6 25 4 27 -22 26 -16 -1 -42 -4 -57 -6z"/>
<path d="M4635 1751 c-4 -7 -13 -10 -19 -8 -7 3 -19 -10 -28 -28 -14 -32 -14
-34 5 -39 17 -4 19 -1 13 27 -5 29 -4 30 8 14 8 -10 23 -17 34 -15 17 3 17 6
7 32 -8 19 -15 25 -20 17z"/>
<path d="M591 1714 c0 -11 3 -14 6 -6 3 7 2 16 -1 19 -3 4 -6 -2 -5 -13z"/>
<path d="M340 1699 c0 -27 6 -36 38 -63 22 -19 21 -18 -4 30 -35 62 -34 62
-34 33z"/>
<path d="M6085 1663 c3 -16 20 -42 36 -58 16 -17 29 -41 29 -54 0 -20 1 -21
16 -7 8 9 19 16 24 16 4 0 10 7 13 15 4 9 -13 34 -45 65 -57 57 -84 65 -73 23z"/>
<path d="M5840 1620 c0 -21 57 -83 70 -75 16 10 -10 60 -40 77 -29 16 -30 16
-30 -2z"/>
<path d="M6231 1616 c-8 -10 -9 -16 -1 -21 7 -4 7 -12 0 -26 -6 -11 -7 -25 -3
-32 4 -6 8 -23 8 -36 0 -13 6 -26 13 -29 9 -3 12 15 11 77 -1 81 -6 93 -28 67z"/>
<path d="M438 1613 c6 -2 12 -17 13 -31 0 -15 4 -36 9 -47 l9 -20 1 20 c1 16
4 15 17 -10 36 -69 73 -105 106 -105 22 0 28 3 18 9 -7 5 -21 7 -30 4 -10 -2
-23 3 -31 12 -12 15 -11 16 16 9 26 -7 28 -6 16 9 -8 9 -11 21 -7 27 3 5 2 10
-4 10 -5 0 -35 27 -67 60 -32 33 -62 60 -68 59 -6 0 -5 -3 2 -6z m118 -140
c-8 -9 -46 18 -40 28 4 6 13 4 25 -7 11 -9 17 -19 15 -21z"/>
<path d="M5782 1583 c-13 -3 -27 -16 -33 -30 -16 -43 5 -48 40 -11 30 32 39
49 24 47 -5 -1 -18 -4 -31 -6z"/>
<path d="M5707 1573 c-11 -10 -8 -43 3 -43 6 0 10 4 10 9 0 5 3 16 6 25 6 16
-7 22 -19 9z"/>
<path d="M4760 1533 c1 -23 9 -48 20 -62 18 -20 22 -22 38 -10 30 24 30 30 4
70 -34 52 -62 53 -62 2z"/>
<path d="M1615 1535 c-13 -60 -13 -65 -4 -71 5 -3 9 0 9 5 0 6 6 10 13 9 18
-4 20 44 3 67 -14 19 -15 19 -21 -10z"/>
<path d="M2508 1519 c-16 -21 -28 -44 -28 -50 0 -15 71 -111 77 -105 3 3 -2
15 -11 28 -21 30 -20 45 4 51 11 3 20 14 20 25 0 17 -27 93 -33 92 -1 -1 -14
-19 -29 -41z"/>
<path d="M5940 1530 c0 -5 14 -20 32 -33 25 -20 29 -28 20 -39 -7 -9 -8 -19
-2 -28 14 -21 13 -22 -25 -63 -19 -20 -35 -44 -35 -52 0 -8 -13 -27 -30 -42
-31 -28 -41 -59 -15 -50 8 4 17 2 20 -3 4 -6 14 -10 24 -10 19 0 37 52 25 72
-3 5 6 23 22 39 28 30 76 39 90 18 10 -17 -30 -64 -55 -64 -30 -1 -46 -29 -26
-45 13 -10 19 -10 33 4 10 9 23 16 29 16 13 0 25 -28 17 -41 -3 -5 -1 -9 5 -9
9 0 62 49 89 84 21 27 47 16 50 -22 2 -21 9 -32 19 -32 12 0 14 -10 11 -50 -2
-30 1 -49 7 -47 12 4 19 328 8 326 -22 -4 -35 3 -45 26 -9 20 -16 23 -37 19
-37 -9 -51 -31 -49 -80 1 -24 -2 -48 -8 -54 -16 -16 -46 -1 -39 19 3 9 -2 26
-10 37 -8 10 -15 36 -15 57 0 33 -3 38 -19 32 -11 -3 -36 1 -55 9 -20 8 -36
11 -36 6z"/>
<path d="M4861 1514 c0 -11 3 -14 6 -6 3 7 2 16 -1 19 -3 4 -6 -2 -5 -13z"/>
<path d="M2168 1478 c-41 -51 -93 -148 -78 -148 18 0 10 -16 -9 -17 -13 -1
-21 9 -30 37 -11 38 -61 133 -61 117 0 -4 9 -26 20 -49 27 -56 38 -114 19
-103 -8 5 -5 -1 5 -13 11 -12 25 -22 31 -22 11 0 28 -17 98 -91 9 -10 17 -26
17 -35 0 -8 5 -12 10 -9 6 3 10 0 10 -8 0 -18 55 -79 64 -70 3 3 6 1 6 -5 0
-6 14 -25 30 -42 17 -17 30 -37 30 -46 0 -8 11 -27 25 -42 14 -15 25 -33 25
-41 0 -8 3 -12 6 -8 8 8 98 -20 139 -43 18 -10 53 -24 77 -30 24 -6 52 -15 63
-19 11 -5 63 -16 115 -26 52 -9 112 -23 134 -31 21 -8 40 -13 42 -12 2 2 -17
19 -42 38 -25 19 -57 47 -72 63 -18 19 -28 24 -33 15 -5 -8 -11 -3 -20 14 -17
38 -38 43 -49 12 -14 -37 -33 -19 -25 25 5 32 2 40 -25 66 -22 21 -30 24 -30
13 0 -9 -9 -26 -20 -39 -16 -20 -19 -21 -20 -6 0 21 -9 22 -25 1 -10 -15 -14
-14 -39 7 -27 24 -27 25 -11 57 9 17 21 32 26 32 5 0 9 6 9 14 0 7 7 19 15 26
20 17 8 32 -16 20 -11 -6 -19 -21 -19 -35 0 -28 -14 -32 -36 -10 -20 20 -34
19 -34 -2 -1 -33 -29 30 -30 64 0 24 7 37 26 49 29 20 55 6 29 -16 -8 -7 -15
-20 -15 -29 0 -10 3 -12 8 -5 4 6 16 14 27 18 13 5 15 10 8 13 -9 3 -10 10 -3
23 8 14 5 28 -11 55 -16 26 -20 46 -16 74 2 21 1 45 -4 52 -6 9 -9 -8 -10 -46
-1 -33 -3 -52 -6 -42 -2 9 -14 17 -25 17 -15 0 -18 -3 -10 -12 16 -22 20 -77
5 -90 -21 -17 -53 18 -54 61 0 29 -2 32 -9 16 -8 -18 -9 -17 -9 7 -1 29 -19
47 -30 30 -4 -6 -28 24 -53 66 -45 73 -47 78 -32 100 14 22 14 25 -3 37 -10 7
-20 11 -23 9 -2 -3 1 -8 7 -12 17 -11 -3 -32 -64 -70 -59 -35 -69 -29 -23 15
30 28 43 56 15 33 -22 -18 -18 3 6 34 36 45 14 39 -23 -6z m122 -165 c0 -19
-3 -24 -10 -17 -6 6 -8 18 -4 27 9 24 14 21 14 -10z m-115 -22 c-3 -6 -11 -11
-17 -11 -6 0 -6 6 2 15 14 17 26 13 15 -4z m68 -41 c3 -11 1 -18 -4 -14 -5 3
-9 12 -9 20 0 20 7 17 13 -6z m65 -26 c-4 -3 -12 5 -18 18 -12 22 -12 22 6 6
10 -10 15 -20 12 -24z m26 -76 c14 -33 14 -37 1 -32 -16 6 -16 7 -20 40 -1 12
-6 28 -10 35 -6 10 -5 11 3 4 6 -5 18 -27 26 -47z m-65 39 c-2 -1 -13 -9 -24
-17 -19 -14 -19 -14 -6 3 7 9 18 17 24 17 6 0 8 -1 6 -3z m15 -35 c3 -5 -1 -9
-9 -9 -8 0 -15 4 -15 9 0 4 4 8 9 8 6 0 12 -4 15 -8z m336 -268 c0 -2 -7 -4
-15 -4 -8 0 -15 4 -15 10 0 5 7 7 15 4 8 -4 15 -8 15 -10z m150 -33 c0 -5 3
-17 6 -25 4 -11 2 -15 -8 -11 -14 6 -20 45 -6 45 4 0 8 -4 8 -9z"/>
<path d="M1530 1495 c0 -8 4 -15 10 -15 5 0 7 7 4 15 -4 8 -8 15 -10 15 -2 0
-4 -7 -4 -15z"/>
<path d="M3406 1465 c4 -8 10 -15 15 -15 4 0 6 7 3 15 -4 8 -10 15 -15 15 -4
0 -6 -7 -3 -15z"/>
<path d="M4980 1460 c0 -5 5 -10 10 -10 6 0 10 5 10 10 0 6 -4 10 -10 10 -5 0
-10 -4 -10 -10z"/>
<path d="M5706 1454 c-12 -31 -7 -56 10 -50 9 3 18 6 20 6 2 0 4 14 4 30 0 32
-23 42 -34 14z"/>
<path d="M1598 1431 c9 -17 19 -26 21 -20 1 5 9 2 17 -8 7 -10 14 -13 14 -7 0
6 -10 20 -22 31 -39 34 -49 36 -30 4z"/>
<path d="M2417 1443 c-25 -6 -17 -23 21 -43 17 -10 39 -24 49 -31 9 -8 2 7
-16 34 -17 26 -33 46 -34 46 -1 -1 -10 -3 -20 -6z"/>
<path d="M705 1381 c3 -30 11 -63 16 -73 12 -22 31 -24 23 -3 -5 11 -2 13 9 9
13 -5 12 2 -5 38 -11 23 -27 52 -35 63 -14 18 -14 15 -8 -34z"/>
<path d="M2046 1407 c3 -10 9 -15 12 -12 3 3 0 11 -7 18 -10 9 -11 8 -5 -6z"/>
<path d="M590 1396 c0 -2 7 -7 16 -10 8 -3 12 -2 9 4 -6 10 -25 14 -25 6z"/>
<path d="M1607 1375 c10 -13 22 -25 27 -25 5 0 -1 11 -14 25 -30 32 -36 32
-13 0z"/>
<path d="M5600 1391 c0 -6 -12 -21 -26 -35 l-27 -24 23 -12 c24 -13 23 -14 39
18 6 12 19 22 27 22 24 0 12 35 -14 38 -12 2 -22 -1 -22 -7z"/>
<path d="M2330 1360 c0 -5 7 -10 15 -10 8 0 15 5 15 10 0 6 -7 10 -15 10 -8 0
-15 -4 -15 -10z"/>
<path d="M4970 1315 c0 -8 5 -15 10 -15 6 0 10 7 10 15 0 8 -4 15 -10 15 -5 0
-10 -7 -10 -15z"/>
<path d="M663 1308 c2 -7 8 -13 13 -13 5 0 15 -4 22 -8 7 -5 12 -3 12 6 0 8
-7 18 -16 21 -25 9 -36 7 -31 -6z"/>
<path d="M2400 1275 c0 -8 2 -15 4 -15 2 0 6 7 10 15 3 8 1 15 -4 15 -6 0 -10
-7 -10 -15z"/>
<path d="M1621 1240 c0 -8 4 -22 9 -30 12 -18 12 -2 0 25 -6 13 -9 15 -9 5z"/>
<path d="M720 1209 c7 -11 14 -18 17 -15 8 8 -5 36 -17 36 -7 0 -7 -6 0 -21z"/>
<path d="M2574 1201 c4 -5 0 -12 -6 -14 -10 -4 -10 -8 1 -15 12 -9 12 -13 2
-26 -8 -9 -9 -16 -3 -16 21 0 33 27 22 54 -5 14 -12 26 -15 26 -4 0 -4 -4 -1
-9z"/>
<path d="M5990 1200 c0 -5 9 -10 21 -10 11 0 17 5 14 10 -3 6 -13 10 -21 10
-8 0 -14 -4 -14 -10z"/>
<path d="M645 1180 c3 -5 13 -10 21 -10 8 0 14 5 14 10 0 6 -9 10 -21 10 -11
0 -17 -4 -14 -10z"/>
<path d="M705 1180 c3 -5 8 -10 11 -10 2 0 4 5 4 10 0 6 -5 10 -11 10 -5 0 -7
-4 -4 -10z"/>
<path d="M458 1147 c-9 -7 -19 -34 -23 -60 l-7 -47 31 0 c34 0 42 12 55 83 6
34 5 37 -16 37 -13 0 -30 -6 -40 -13z"/>
<path d="M6040 1135 c0 -16 6 -25 15 -25 19 0 19 -20 -2 -71 l-16 -41 -27 31
c-27 30 -50 40 -50 22 0 -6 4 -12 9 -15 14 -9 0 -59 -23 -84 -16 -19 -28 -23
-53 -18 -21 3 -33 1 -33 -6 0 -7 -10 -22 -22 -35 -12 -13 -16 -23 -10 -23 7 0
12 5 12 11 0 7 12 -1 26 -16 22 -24 24 -32 15 -52 -16 -35 -14 -41 19 -48 33
-7 51 -25 25 -25 -9 0 -25 5 -36 11 -17 8 -23 6 -39 -14 -10 -13 -37 -32 -59
-42 -23 -10 -41 -22 -41 -26 0 -5 -17 -17 -38 -28 -48 -24 -64 -44 -64 -76 0
-37 -20 -48 -54 -30 -16 8 -39 15 -51 15 -19 0 -22 -5 -22 -42 1 -61 47 -196
71 -204 22 -7 24 -24 3 -24 -36 0 -5 -82 51 -137 18 -18 34 -43 36 -55 3 -26
38 -38 38 -14 0 9 5 16 11 16 6 0 8 -7 5 -16 -5 -13 -2 -14 11 -9 10 4 36 11
58 15 22 4 31 8 20 10 -15 1 -13 4 9 11 19 5 34 5 42 -2 7 -5 23 -7 36 -5 36
9 78 16 137 25 33 5 57 14 63 24 5 10 18 17 29 17 12 0 33 9 47 21 17 13 34
18 49 14 l23 -5 0 409 c-1 289 -4 411 -12 413 -8 3 -8 10 0 25 9 16 8 24 -3
33 -8 7 -15 21 -15 31 0 11 -5 19 -11 19 -7 0 -9 -12 -5 -36 6 -27 2 -44 -13
-70 -12 -19 -21 -46 -21 -58 0 -35 -32 -70 -57 -62 -24 8 -43 46 -42 84 0 15
3 21 6 15 8 -22 32 -14 39 12 3 14 10 25 15 25 5 0 9 7 9 16 0 8 7 22 15 30
19 19 20 38 2 31 -10 -4 -13 2 -9 19 5 27 -9 32 -28 9 -17 -21 -48 -19 -62 5
-17 27 -28 25 -28 -5z m-41 -241 c3 -16 1 -17 -13 -5 -19 16 -21 34 -3 29 6
-3 14 -13 16 -24z m11 -222 c0 -13 34 -42 50 -42 9 0 25 9 35 20 10 11 27 20
38 20 20 0 20 -17 2 -92 -6 -22 -4 -28 9 -28 25 0 30 -27 12 -56 -12 -18 -23
-23 -36 -19 -32 10 -42 -3 -25 -35 14 -27 14 -29 -5 -35 -27 -9 -84 25 -88 52
-3 20 16 47 39 55 14 5 6 44 -13 70 -7 10 -24 19 -38 20 -23 3 -25 0 -25 -43
0 -54 -18 -93 -51 -108 -13 -6 -24 -17 -24 -26 0 -20 -39 -44 -78 -47 -38 -3
-44 -8 -31 -28 7 -13 9 -13 9 0 0 13 1 13 10 0 16 -24 12 -40 -10 -40 -28 0
-35 -24 -21 -70 14 -49 37 -73 62 -65 15 5 19 1 19 -15 0 -24 -26 -38 -42 -22
-7 7 -16 8 -23 2 -6 -5 -27 -7 -47 -4 l-35 6 14 41 c14 39 13 41 -17 83 -30
42 -75 133 -68 138 1 1 19 13 38 27 19 14 67 45 107 68 80 47 134 111 114 134
-6 8 -8 27 -5 45 5 26 9 30 24 22 23 -12 57 11 45 31 -5 8 6 -1 23 -20 18 -18
32 -36 32 -39z"/>
<path d="M685 1120 c8 -16 16 -33 16 -37 3 -21 12 -31 30 -36 15 -4 19 -2 15
10 -3 8 -6 18 -6 22 0 9 -57 71 -65 71 -3 0 1 -13 10 -30z"/>
<path d="M6011 1134 c0 -11 3 -14 6 -6 3 7 2 16 -1 19 -3 4 -6 -2 -5 -13z"/>
<path d="M796 1115 c4 -8 11 -15 16 -15 6 0 5 6 -2 15 -7 8 -14 15 -16 15 -2
0 -1 -7 2 -15z"/>
<path d="M840 1105 c13 -16 4 -39 -11 -30 -5 4 -9 1 -9 -4 0 -12 11 -14 34 -5
23 9 20 41 -5 47 -16 4 -18 3 -9 -8z"/>
<path d="M5855 1090 c3 -5 8 -10 11 -10 2 0 4 5 4 10 0 6 -5 10 -11 10 -5 0
-7 -4 -4 -10z"/>
<path d="M6185 1059 c-4 -6 -5 -12 -2 -15 2 -3 7 2 10 11 7 17 1 20 -8 4z"/>
<path d="M779 1043 c-7 -10 -9 -15 -5 -11 5 4 15 3 23 -3 14 -13 17 -1 4 19
-6 10 -11 9 -22 -5z"/>
<path d="M2617 1040 c-26 -31 -20 -47 17 -41 4 1 5 -10 2 -24 -8 -30 -1 -33
14 -4 8 15 8 24 0 34 -7 8 -9 18 -7 23 3 4 2 13 -2 20 -5 8 -12 6 -24 -8z"/>
<path d="M5060 1041 c0 -25 6 -27 13 -6 4 8 2 17 -3 20 -6 4 -10 -3 -10 -14z"/>
<path d="M2568 993 c7 -3 16 -2 19 1 4 3 -2 6 -13 5 -11 0 -14 -3 -6 -6z"/>
<path d="M690 986 c0 -2 9 -6 20 -9 11 -3 20 -1 20 4 0 5 -9 9 -20 9 -11 0
-20 -2 -20 -4z"/>
<path d="M5135 966 l-30 -13 43 -43 c23 -23 42 -44 42 -47 0 -12 -31 -33 -50
-33 -30 0 -20 -25 11 -26 13 -1 32 5 42 14 16 14 19 14 28 2 5 -8 7 -31 4 -50
-2 -19 -7 -57 -10 -85 -3 -27 -12 -54 -19 -60 -7 -5 -15 -21 -19 -35 -3 -14
-9 -35 -12 -47 -6 -20 -4 -23 19 -23 21 0 30 9 52 55 35 71 46 80 76 64 13 -7
26 -17 30 -23 5 -7 8 -7 9 -1 0 6 2 21 5 34 2 13 -1 30 -7 37 -6 8 -9 20 -6
27 3 7 -1 21 -9 32 -8 10 -14 34 -14 53 0 33 -1 34 -29 29 -37 -8 -61 15 -43
43 12 19 4 30 -50 63 -17 11 -25 23 -22 32 7 18 -1 18 -41 1z"/>
<path d="M670 945 c0 -3 14 -11 30 -20 17 -9 30 -11 30 -6 0 5 -13 14 -30 20
-16 5 -30 8 -30 6z"/>
<path d="M4896 941 c-7 -10 4 -51 14 -51 14 0 18 49 4 54 -7 3 -16 2 -18 -3z"/>
<path d="M746 922 c-3 -6 1 -13 10 -16 23 -9 28 -2 10 13 -8 7 -17 8 -20 3z"/>
<path d="M386 865 c-15 -12 -17 -18 -8 -27 15 -15 67 -14 87 2 37 31 -39 55
-79 25z"/>
<path d="M1026 864 c-9 -22 -8 -24 9 -24 8 0 15 6 15 14 0 22 -17 28 -24 10z"/>
<path d="M693 851 c-3 -12 -10 -21 -16 -21 -6 0 0 -11 13 -25 29 -31 39 -25
36 22 -2 41 -24 57 -33 24z"/>
<path d="M990 839 c0 -8 4 -20 9 -27 7 -11 9 -11 14 1 3 9 -1 21 -9 27 -11 10
-14 10 -14 -1z"/>
<path d="M742 820 c0 -14 2 -19 5 -12 2 6 2 18 0 25 -3 6 -5 1 -5 -13z"/>
<path d="M600 663 c-46 -6 -58 -19 -24 -27 20 -5 32 -2 48 13 11 12 18 20 16
19 -3 0 -21 -3 -40 -5z"/>
<path d="M3690 661 c0 -6 5 -13 10 -16 6 -3 10 1 10 9 0 9 -4 16 -10 16 -5 0
-10 -4 -10 -9z"/>
<path d="M983 613 c-18 -2 -33 -8 -33 -12 0 -4 -12 -7 -27 -6 -18 0 -28 -5
-28 -15 -2 -23 -16 -50 -27 -50 -15 0 -68 -57 -68 -74 0 -24 22 -31 37 -11 7
11 13 14 13 9 0 -13 42 -33 88 -44 36 -9 54 8 34 33 -5 6 -12 25 -16 41 -4 17
-14 35 -22 41 -14 10 -13 13 3 33 23 27 55 21 74 -15 22 -41 63 -54 111 -35
22 9 44 24 49 34 5 10 16 18 23 18 20 0 36 24 26 40 -8 14 -167 23 -237 13z"/>
<path d="M272 554 c-60 -44 -74 -68 -32 -57 22 6 63 -28 42 -35 -16 -5 -15
-32 1 -32 8 0 19 -10 24 -23 13 -27 2 -52 -34 -80 -13 -10 -23 -24 -23 -31 0
-7 -7 -27 -16 -44 -16 -32 -37 -41 -50 -21 -4 7 -16 -9 -30 -37 -13 -26 -22
-49 -21 -49 1 -1 15 -6 30 -13 15 -7 36 -12 46 -12 23 0 47 -28 43 -50 -1 -9
4 -23 13 -30 8 -7 15 -19 15 -26 0 -19 256 -21 263 -1 4 9 6 9 6 0 1 -7 11
-12 24 -12 14 1 16 3 6 6 -10 2 -16 15 -16 31 0 41 -27 103 -54 124 -33 26
-87 48 -117 48 -14 0 -47 15 -74 33 -46 31 -63 52 -33 41 10 -4 15 0 15 15 0
30 63 57 97 42 36 -17 43 -14 43 19 0 27 6 34 42 50 39 17 44 17 80 3 31 -13
44 -13 65 -4 14 6 28 9 31 6 3 -2 11 4 19 15 24 35 0 55 -83 69 -41 7 -78 10
-82 7 -5 -3 -35 -1 -67 4 -61 10 -93 37 -87 73 5 27 -19 20 -86 -29z"/>
<path d="M114 493 c-10 -8 -25 -18 -32 -22 -17 -10 -6 -36 25 -56 24 -16 26
-16 54 16 16 18 29 39 29 46 0 7 0 16 0 20 0 14 -56 11 -76 -4z"/>
<path d="M720 441 c0 -5 6 -11 13 -13 17 -7 38 2 31 13 -7 12 -44 12 -44 0z"/>
<path d="M1820 401 c0 -6 5 -13 10 -16 6 -3 10 1 10 9 0 9 -4 16 -10 16 -5 0
-10 -4 -10 -9z"/>
<path d="M4031 390 c-35 -10 -70 -16 -77 -13 -14 5 25 -76 48 -101 11 -11 15
-11 25 3 9 11 12 12 13 3 0 -7 4 -10 10 -7 5 3 18 1 27 -4 10 -6 14 -11 9 -11
-11 0 42 -50 53 -50 9 0 31 22 31 31 0 3 -20 14 -45 23 -25 10 -45 19 -45 21
0 1 7 22 15 45 16 46 19 80 8 79 -5 0 -37 -9 -72 -19z m-11 -70 c6 -11 8 -20
6 -20 -3 0 -10 9 -16 20 -6 11 -8 20 -6 20 3 0 10 -9 16 -20z"/>
<path d="M1475 350 c3 -5 8 -10 11 -10 2 0 4 5 4 10 0 6 -5 10 -11 10 -5 0 -7
-4 -4 -10z"/>
<path d="M1141 306 c-7 -8 -14 -30 -14 -48 -2 -25 3 -33 18 -36 11 -2 28 -11
37 -19 16 -14 20 -14 43 1 34 23 31 44 -8 61 -19 8 -40 24 -48 36 -13 19 -16
20 -28 5z"/>
<path d="M0 269 c0 -17 4 -28 10 -24 13 8 13 55 0 55 -5 0 -10 -14 -10 -31z"/>
<path d="M5320 279 c0 -6 -7 -9 -15 -5 -8 3 -15 1 -15 -5 0 -6 -7 -8 -16 -5
-9 3 -27 -2 -40 -13 -21 -17 -52 -20 -276 -27 -139 -4 -281 -7 -315 -5 l-63 3
6 -33 c3 -19 10 -56 15 -82 5 -26 10 -62 10 -80 1 -24 3 -26 6 -9 4 22 41 53
72 60 9 2 57 8 106 13 50 4 110 10 135 13 68 8 317 9 329 2 6 -4 11 -2 11 4 0
21 -21 50 -35 50 -17 0 -20 16 -4 25 6 4 8 13 5 20 -3 8 2 11 13 8 11 -3 33 8
55 27 36 32 45 50 26 50 -5 0 -10 -5 -10 -11z"/>
<path d="M808 259 c-12 -7 -18 -22 -18 -49 0 -37 2 -40 28 -40 15 0 37 -3 50
-6 13 -4 22 -2 22 5 0 6 9 20 20 31 26 26 25 32 -11 53 -34 19 -65 21 -91 6z"/>
<path d="M4465 250 c3 -5 8 -10 11 -10 2 0 4 5 4 10 0 6 -5 10 -11 10 -5 0 -7
-4 -4 -10z"/>
<path d="M4350 240 c-14 -4 -18 -9 -10 -10 8 -1 23 -3 33 -5 9 -2 15 1 12 5
-3 5 5 11 17 13 21 4 21 4 -2 5 -14 0 -36 -4 -50 -8z"/>
<path d="M4250 230 c0 -5 11 -10 25 -10 14 0 25 5 25 10 0 6 -11 10 -25 10
-14 0 -25 -4 -25 -10z"/>
<path d="M760 170 c-8 -5 -11 -12 -7 -16 4 -4 13 -2 19 4 15 15 7 24 -12 12z"/>
<path d="M989 138 c-27 -50 -69 -77 -125 -83 -60 -6 -78 10 -56 46 18 28 16
29 -33 29 -25 0 -45 -4 -45 -10 0 -5 10 -10 23 -10 13 0 27 -3 30 -7 10 -9
-33 -53 -52 -53 -33 0 -89 -21 -95 -35 -5 -13 19 -15 170 -15 158 0 175 2 180
18 6 19 11 28 38 66 16 23 17 30 6 51 -17 31 -26 31 -41 3z"/>
<path d="M2868 140 c-9 -13 -24 -20 -44 -20 -17 0 -37 -7 -44 -15 -7 -8 -21
-15 -31 -15 -32 0 -28 -16 9 -35 20 -11 44 -28 53 -37 10 -11 31 -18 53 -18
33 0 37 3 43 33 4 17 6 37 4 42 -2 6 -3 24 -2 41 2 39 -23 53 -41 24z"/>
<path d="M5488 115 c-26 -37 -33 -42 -49 -32 -27 17 -34 2 -9 -23 28 -28 107
-26 102 3 -2 9 4 27 13 39 20 30 19 45 -6 51 -16 4 -27 -4 -51 -38z"/>
<path d="M3047 116 c-24 -29 -21 -36 12 -36 38 0 47 14 23 38 -18 18 -19 18
-35 -2z"/>
<path d="M1150 120 c-8 -5 -12 -11 -9 -14 3 -3 14 1 25 9 21 16 8 20 -16 5z"/>
<path d="M0 33 l0 -33 105 0 c112 0 120 6 68 44 -19 14 -44 19 -99 20 l-74 1
0 -32z"/>
</g>
</svg>
